NotoSansArmenian-Bold.ufo
<glyph name="dieresiscomb" format="2">
  <unicode hex="0308"/>
  <anchor x="-1" y="553" name="_top"/>
  <outline>
    <contour>
      <point x="-202" y="690" type="curve" smooth="yes"/>
      <point x="-202" y="638"/>
      <point x="-166" y="614"/>
      <point x="-119" y="614" type="curve" smooth="yes"/>
      <point x="-74" y="614"/>
      <point x="-35" y="638"/>
      <point x="-35" y="690" type="curve" smooth="yes"/>
      <point x="-35" y="743"/>
      <point x="-74" y="767"/>
      <point x="-119" y="767" type="curve" smooth="yes"/>
      <point x="-166" y="767"/>
      <point x="-202" y="743"/>
    </contour>
    <contour>
      <point x="32" y="690" type="curve" smooth="yes"/>
      <point x="32" y="638"/>
      <point x="68" y="614"/>
      <point x="116" y="614" type="curve" smooth="yes"/>
      <point x="161" y="614"/>
      <point x="200" y="638"/>
      <point x="200" y="690" type="curve" smooth="yes"/>
      <point x="200" y="743"/>
      <point x="161" y="767"/>
      <point x="116" y="767" type="curve" smooth="yes"/>
      <point x="68" y="767"/>
      <point x="32" y="743"/>
    </contour>
  </outline>
</glyph>
<glyph name="uni0531" format="2">
  <advance width="861"/>
  <unicode hex="0531"/>
  <note>
uni0531
</note>
  <anchor x="363" y="714" name="top"/>
  <outline>
    <contour>
      <point x="359" y="-10" type="curve" smooth="yes"/>
      <point x="563" y="-10"/>
      <point x="653" y="114"/>
      <point x="653" y="252" type="curve" smooth="yes"/>
      <point x="653" y="714" type="line"/>
      <point x="462" y="714" type="line"/>
      <point x="462" y="287" type="line" smooth="yes"/>
      <point x="462" y="189"/>
      <point x="440" y="148"/>
      <point x="364" y="148" type="curve" smooth="yes"/>
      <point x="296" y="148"/>
      <point x="264" y="177"/>
      <point x="264" y="282" type="curve" smooth="yes"/>
      <point x="264" y="714" type="line"/>
      <point x="73" y="714" type="line"/>
      <point x="73" y="254" type="line" smooth="yes"/>
      <point x="73" y="99"/>
      <point x="172" y="-10"/>
    </contour>
    <contour>
      <point x="646" y="241" type="curve"/>
      <point x="606" y="99" type="line"/>
      <point x="615" y="102"/>
      <point x="634" y="104"/>
      <point x="647" y="104" type="curve" smooth="yes"/>
      <point x="677" y="104"/>
      <point x="688" y="93"/>
      <point x="688" y="51" type="curve" smooth="yes"/>
      <point x="688" y="0" type="line"/>
      <point x="851" y="0" type="line"/>
      <point x="851" y="62" type="line" smooth="yes"/>
      <point x="851" y="191"/>
      <point x="791" y="244"/>
      <point x="678" y="244" type="curve" smooth="yes"/>
      <point x="669" y="244"/>
      <point x="657" y="243"/>
    </contour>
  </outline>
</glyph>
<glyph name="uni0532" format="2">
  <advance width="721"/>
  <unicode hex="0532"/>
  <note>
uni0532
</note>
  <outline>
    <contour>
      <point x="73" y="0" type="line"/>
      <point x="264" y="0" type="line"/>
      <point x="264" y="425" type="line" smooth="yes"/>
      <point x="264" y="525"/>
      <point x="289" y="566"/>
      <point x="365" y="566" type="curve" smooth="yes"/>
      <point x="442" y="566"/>
      <point x="468" y="528"/>
      <point x="468" y="420" type="curve"/>
      <point x="659" y="420" type="line"/>
      <point x="659" y="618"/>
      <point x="569" y="724"/>
      <point x="370" y="724" type="curve" smooth="yes"/>
      <point x="166" y="724"/>
      <point x="73" y="600"/>
      <point x="73" y="462" type="curve" smooth="yes"/>
    </contour>
    <contour>
      <point x="248" y="360" type="line"/>
      <point x="248" y="202" type="line"/>
      <point x="665" y="202" type="line"/>
      <point x="665" y="360" type="line"/>
    </contour>
  </outline>
</glyph>
<glyph name="uni0533" format="2">
  <advance width="779"/>
  <unicode hex="0533"/>
  <note>
uni0533
</note>
  <outline>
    <contour>
      <point x="630" y="0" type="line"/>
      <point x="630" y="416" type="line" smooth="yes"/>
      <point x="630" y="630"/>
      <point x="538" y="724"/>
      <point x="340" y="724" type="curve" smooth="yes"/>
      <point x="164" y="724"/>
      <point x="48" y="620"/>
      <point x="48" y="465" type="curve" smooth="yes"/>
      <point x="48" y="297"/>
      <point x="146" y="204"/>
      <point x="319" y="204" type="curve" smooth="yes"/>
      <point x="755" y="204" type="line"/>
      <point x="755" y="362" type="line"/>
      <point x="344" y="362" type="line" smooth="yes"/>
      <point x="269" y="362"/>
      <point x="246" y="393"/>
      <point x="246" y="465" type="curve" smooth="yes"/>
      <point x="246" y="532"/>
      <point x="280" y="566"/>
      <point x="338" y="566" type="curve" smooth="yes"/>
      <point x="414" y="566"/>
      <point x="439" y="519"/>
      <point x="439" y="398" type="curve" smooth="yes"/>
      <point x="439" y="0" type="line"/>
    </contour>
  </outline>
</glyph>
<glyph name="uni0534" format="2">
  <advance width="789"/>
  <unicode hex="0534"/>
  <note>
uni0534
</note>
  <outline>
    <contour>
      <point x="630" y="0" type="line"/>
      <point x="630" y="459" type="line" smooth="yes"/>
      <point x="630" y="612"/>
      <point x="530" y="724"/>
      <point x="338" y="724" type="curve" smooth="yes"/>
      <point x="135" y="724"/>
      <point x="37" y="601"/>
      <point x="37" y="422" type="curve"/>
      <point x="228" y="422" type="line"/>
      <point x="228" y="526"/>
      <point x="257" y="566"/>
      <point x="332" y="566" type="curve" smooth="yes"/>
      <point x="404" y="566"/>
      <point x="439" y="536"/>
      <point x="439" y="426" type="curve" smooth="yes"/>
      <point x="439" y="0" type="line"/>
    </contour>
    <contour>
      <point x="613" y="361" type="line"/>
      <point x="613" y="203" type="line"/>
      <point x="771" y="203" type="line"/>
      <point x="771" y="361" type="line"/>
    </contour>
  </outline>
</glyph>
<glyph name="uni0535" format="2">
  <advance width="721"/>
  <unicode hex="0535"/>
  <note>
uni0535
</note>
  <outline>
    <contour>
      <point x="73" y="714" type="line"/>
      <point x="73" y="252" type="line" smooth="yes"/>
      <point x="73" y="114"/>
      <point x="166" y="-10"/>
      <point x="370" y="-10" type="curve" smooth="yes"/>
      <point x="569" y="-10"/>
      <point x="659" y="96"/>
      <point x="659" y="294" type="curve"/>
      <point x="468" y="294" type="line"/>
      <point x="468" y="186"/>
      <point x="442" y="148"/>
      <point x="365" y="148" type="curve" smooth="yes"/>
      <point x="289" y="148"/>
      <point x="264" y="189"/>
      <point x="264" y="289" type="curve" smooth="yes"/>
      <point x="264" y="714" type="line"/>
    </contour>
    <contour>
      <point x="248" y="398" type="line"/>
      <point x="665" y="398" type="line"/>
      <point x="665" y="556" type="line"/>
      <point x="248" y="556" type="line"/>
    </contour>
  </outline>
</glyph>
<glyph name="uni0536" format="2">
  <advance width="708"/>
  <unicode hex="0536"/>
  <note>
uni0536
</note>
  <outline>
    <contour>
      <point x="302" y="290" type="curve" smooth="yes"/>
      <point x="458" y="290"/>
      <point x="606" y="377"/>
      <point x="606" y="485" type="curve" smooth="yes"/>
      <point x="606" y="646"/>
      <point x="486" y="729"/>
      <point x="329" y="729" type="curve" smooth="yes"/>
      <point x="167" y="729"/>
      <point x="53" y="638"/>
      <point x="53" y="510" type="curve" smooth="yes"/>
      <point x="53" y="379"/>
      <point x="172" y="290"/>
    </contour>
    <contour>
      <point x="522" y="0" type="line"/>
      <point x="684" y="0" type="line"/>
      <point x="684" y="73" type="line" smooth="yes"/>
      <point x="684" y="177"/>
      <point x="635" y="208"/>
      <point x="538" y="208" type="curve" smooth="yes"/>
      <point x="215" y="208" type="line"/>
      <point x="215" y="262" type="line"/>
      <point x="57" y="262" type="line"/>
      <point x="57" y="0" type="line"/>
      <point x="215" y="0" type="line"/>
      <point x="215" y="58" type="line"/>
      <point x="461" y="58" type="line" smooth="yes"/>
      <point x="511" y="58"/>
      <point x="522" y="47"/>
      <point x="522" y="18" type="curve" smooth="yes"/>
    </contour>
    <contour>
      <point x="227" y="75" type="line"/>
      <point x="436" y="75"/>
      <point x="603" y="277"/>
      <point x="606" y="485" type="curve"/>
      <point x="428" y="485" type="line"/>
      <point x="428" y="346"/>
      <point x="357" y="208"/>
      <point x="227" y="208" type="curve"/>
    </contour>
    <contour>
      <point x="331" y="440" type="curve" smooth="yes"/>
      <point x="274" y="440"/>
      <point x="244" y="464"/>
      <point x="244" y="510" type="curve" smooth="yes"/>
      <point x="244" y="552"/>
      <point x="269" y="579"/>
      <point x="328" y="579" type="curve" smooth="yes"/>
      <point x="384" y="579"/>
      <point x="415" y="557"/>
      <point x="415" y="510" type="curve" smooth="yes"/>
      <point x="415" y="463"/>
      <point x="387" y="440"/>
    </contour>
  </outline>
</glyph>
<glyph name="uni0537" format="2">
  <advance width="626"/>
  <unicode hex="0537"/>
  <note>
uni0537
</note>
  <outline>
    <contour>
      <point x="234" y="513" type="line"/>
      <point x="234" y="355" type="line"/>
      <point x="572" y="355" type="line"/>
      <point x="572" y="513" type="line"/>
    </contour>
    <contour>
      <point x="301" y="0" type="line" smooth="yes"/>
      <point x="353" y="0"/>
      <point x="371" y="-23"/>
      <point x="371" y="-72" type="curve" smooth="yes"/>
      <point x="371" y="-148" type="line"/>
      <point x="562" y="-148" type="line"/>
      <point x="562" y="-53" type="line" smooth="yes"/>
      <point x="562" y="81"/>
      <point x="479" y="158"/>
      <point x="327" y="158" type="curve" smooth="yes"/>
      <point x="268" y="158" type="line"/>
      <point x="268" y="714" type="line"/>
      <point x="77" y="714" type="line"/>
      <point x="77" y="0" type="line"/>
    </contour>
  </outline>
</glyph>
<glyph name="uni0538" format="2">
  <advance width="721"/>
  <unicode hex="0538"/>
  <note>
uni0538
</note>
  <outline>
    <contour>
      <point x="73" y="0" type="line"/>
      <point x="264" y="0" type="line"/>
      <point x="264" y="425" type="line" smooth="yes"/>
      <point x="264" y="523"/>
      <point x="289" y="564"/>
      <point x="365" y="564" type="curve" smooth="yes"/>
      <point x="442" y="564"/>
      <point x="468" y="526"/>
      <point x="468" y="420" type="curve"/>
      <point x="659" y="420" type="line"/>
      <point x="659" y="618"/>
      <point x="569" y="724"/>
      <point x="370" y="724" type="curve" smooth="yes"/>
      <point x="166" y="724"/>
      <point x="73" y="600"/>
      <point x="73" y="462" type="curve" smooth="yes"/>
    </contour>
    <contour>
      <point x="248" y="158" type="line"/>
      <point x="248" y="0" type="line"/>
      <point x="665" y="0" type="line"/>
      <point x="665" y="158" type="line"/>
    </contour>
  </outline>
</glyph>
<glyph name="uni0539" format="2">
  <advance width="1021"/>
  <unicode hex="0539"/>
  <note>
uni0539
</note>
  <outline>
    <contour>
      <point x="73" y="0" type="line"/>
      <point x="264" y="0" type="line"/>
      <point x="264" y="386" type="line" smooth="yes"/>
      <point x="264" y="507"/>
      <point x="330" y="566"/>
      <point x="456" y="566" type="curve" smooth="yes"/>
      <point x="601" y="566"/>
      <point x="653" y="539"/>
      <point x="653" y="424" type="curve"/>
      <point x="844" y="424" type="line"/>
      <point x="844" y="614"/>
      <point x="718" y="724"/>
      <point x="456" y="724" type="curve" smooth="yes"/>
      <point x="204" y="724"/>
      <point x="73" y="583"/>
      <point x="73" y="389" type="curve" smooth="yes"/>
    </contour>
    <contour>
      <point x="983" y="503" type="line"/>
      <point x="590" y="503" type="line" smooth="yes"/>
      <point x="424" y="503"/>
      <point x="338" y="425"/>
      <point x="338" y="292" type="curve" smooth="yes"/>
      <point x="338" y="166"/>
      <point x="417" y="75"/>
      <point x="594" y="75" type="curve" smooth="yes"/>
      <point x="735" y="75"/>
      <point x="844" y="179"/>
      <point x="844" y="345" type="curve"/>
      <point x="983" y="345" type="line"/>
    </contour>
    <contour>
      <point x="653" y="345" type="line"/>
      <point x="653" y="255"/>
      <point x="622" y="233"/>
      <point x="589" y="233" type="curve" smooth="yes"/>
      <point x="546" y="233"/>
      <point x="535" y="262"/>
      <point x="535" y="292" type="curve" smooth="yes"/>
      <point x="535" y="330"/>
      <point x="554" y="345"/>
      <point x="587" y="345" type="curve" smooth="yes"/>
    </contour>
  </outline>
</glyph>
<glyph name="uni053A" format="2">
  <advance width="770"/>
  <unicode hex="053A"/>
  <note>
uni053A
</note>
  <outline>
    <contour>
      <point x="620" y="714" type="line"/>
      <point x="429" y="714" type="line"/>
      <point x="429" y="316" type="line" smooth="yes"/>
      <point x="429" y="197"/>
      <point x="405" y="148"/>
      <point x="333" y="148" type="curve" smooth="yes"/>
      <point x="278" y="148"/>
      <point x="246" y="183"/>
      <point x="246" y="240" type="curve"/>
      <point x="48" y="240" type="line"/>
      <point x="48" y="92"/>
      <point x="162" y="-10"/>
      <point x="335" y="-10" type="curve" smooth="yes"/>
      <point x="530" y="-10"/>
      <point x="620" y="94"/>
      <point x="620" y="308" type="curve" smooth="yes"/>
    </contour>
    <contour>
      <point x="319" y="509" type="line" smooth="yes"/>
      <point x="146" y="509"/>
      <point x="48" y="399"/>
      <point x="48" y="240" type="curve"/>
      <point x="246" y="240" type="line"/>
      <point x="246" y="313"/>
      <point x="269" y="351"/>
      <point x="344" y="351" type="curve" smooth="yes"/>
      <point x="755" y="351" type="line"/>
      <point x="755" y="509" type="line"/>
    </contour>
  </outline>
</glyph>
<glyph name="uni053B" format="2">
  <advance width="739"/>
  <unicode hex="053B"/>
  <note>
uni053B
</note>
  <outline>
    <contour>
      <point x="77" y="714" type="line"/>
      <point x="77" y="0" type="line"/>
      <point x="268" y="0" type="line"/>
      <point x="268" y="427" type="line"/>
      <point x="260" y="427" type="line"/>
      <point x="266" y="460"/>
      <point x="268" y="494"/>
      <point x="268" y="529" type="curve" smooth="yes"/>
      <point x="268" y="714" type="line"/>
    </contour>
    <contour>
      <point x="258" y="189" type="line"/>
      <point x="268" y="189" type="line"/>
      <point x="268" y="215" type="line" smooth="yes"/>
      <point x="268" y="296"/>
      <point x="335" y="346"/>
      <point x="413" y="346" type="curve" smooth="yes"/>
      <point x="477" y="346"/>
      <point x="512" y="306"/>
      <point x="512" y="233" type="curve" smooth="yes"/>
      <point x="512" y="172" type="line"/>
      <point x="703" y="172" type="line"/>
      <point x="703" y="248" type="line" smooth="yes"/>
      <point x="703" y="395"/>
      <point x="607" y="504"/>
      <point x="463" y="504" type="curve" smooth="yes"/>
      <point x="390" y="504"/>
      <point x="312" y="473"/>
      <point x="258" y="416" type="curve"/>
    </contour>
  </outline>
</glyph>
<glyph name="uni053C" format="2">
  <advance width="468"/>
  <unicode hex="053C"/>
  <note>
uni053C
</note>
  <outline>
    <contour>
      <point x="77" y="0" type="line"/>
      <point x="445" y="0" type="line"/>
      <point x="445" y="158" type="line"/>
      <point x="268" y="158" type="line"/>
      <point x="268" y="714" type="line"/>
      <point x="77" y="714" type="line"/>
    </contour>
  </outline>
</glyph>
<glyph name="uni053D" format="2">
  <advance width="985"/>
  <unicode hex="053D"/>
  <note>
uni053D
</note>
  <outline>
    <contour>
      <point x="77" y="0" type="line"/>
      <point x="268" y="0" type="line"/>
      <point x="268" y="714" type="line"/>
      <point x="77" y="714" type="line"/>
    </contour>
    <contour>
      <point x="412" y="596" type="line"/>
      <point x="412" y="378" type="line" smooth="yes"/>
      <point x="412" y="210"/>
      <point x="504" y="124"/>
      <point x="677" y="124" type="curve" smooth="yes"/>
      <point x="851" y="124"/>
      <point x="942" y="219"/>
      <point x="942" y="391" type="curve" smooth="yes"/>
      <point x="942" y="596" type="line"/>
      <point x="751" y="596" type="line"/>
      <point x="751" y="398" type="line" smooth="yes"/>
      <point x="751" y="314"/>
      <point x="729" y="282"/>
      <point x="677" y="282" type="curve" smooth="yes"/>
      <point x="627" y="282"/>
      <point x="603" y="317"/>
      <point x="603" y="398" type="curve" smooth="yes"/>
      <point x="603" y="596" type="line"/>
    </contour>
    <contour>
      <point x="156" y="596" type="line"/>
      <point x="156" y="438" type="line"/>
      <point x="528" y="438" type="line"/>
      <point x="528" y="596" type="line"/>
    </contour>
  </outline>
</glyph>
<glyph name="uni053E" format="2">
  <advance width="751"/>
  <unicode hex="053E"/>
  <note>
uni053E
</note>
  <outline>
    <contour>
      <point x="52" y="256" type="curve" smooth="yes"/>
      <point x="52" y="93"/>
      <point x="170" y="-10"/>
      <point x="379" y="-10" type="curve" smooth="yes"/>
      <point x="574" y="-10"/>
      <point x="704" y="95"/>
      <point x="704" y="246" type="curve" smooth="yes"/>
      <point x="704" y="406"/>
      <point x="647" y="486"/>
      <point x="379" y="588" type="curve" smooth="yes"/>
      <point x="229" y="645"/>
      <point x="225" y="659"/>
      <point x="225" y="714" type="curve"/>
      <point x="33" y="714" type="line"/>
      <point x="33" y="579"/>
      <point x="58" y="537"/>
      <point x="275" y="456" type="curve" smooth="yes"/>
      <point x="457" y="388"/>
      <point x="512" y="343"/>
      <point x="512" y="255" type="curve" smooth="yes"/>
      <point x="512" y="179"/>
      <point x="451" y="148"/>
      <point x="379" y="148" type="curve" smooth="yes"/>
      <point x="284" y="148"/>
      <point x="244" y="188"/>
      <point x="244" y="259" type="curve" smooth="yes"/>
      <point x="244" y="445"/>
      <point x="447" y="572"/>
      <point x="700" y="564" type="curve"/>
      <point x="700" y="722" type="line"/>
      <point x="340" y="722"/>
      <point x="52" y="502"/>
    </contour>
  </outline>
</glyph>
<glyph name="uni053F" format="2">
  <advance width="756"/>
  <unicode hex="053F"/>
  <note>
uni053F
</note>
  <outline>
    <contour>
      <point x="684" y="0" type="line"/>
      <point x="684" y="625" type="line"/>
      <point x="493" y="625" type="line"/>
      <point x="493" y="277" type="line"/>
      <point x="501" y="277" type="line"/>
      <point x="495" y="245"/>
      <point x="493" y="190"/>
      <point x="493" y="175" type="curve" smooth="yes"/>
      <point x="493" y="0" type="line"/>
    </contour>
    <contour>
      <point x="554" y="605" type="line"/>
      <point x="493" y="605" type="line"/>
      <point x="493" y="568" type="line" smooth="yes"/>
      <point x="493" y="434"/>
      <point x="472" y="350"/>
      <point x="358" y="350" type="curve" smooth="yes"/>
      <point x="292" y="350"/>
      <point x="257" y="391"/>
      <point x="257" y="470" type="curve" smooth="yes"/>
      <point x="257" y="714" type="line"/>
      <point x="66" y="714" type="line"/>
      <point x="66" y="421" type="line" smooth="yes"/>
      <point x="66" y="259"/>
      <point x="169" y="192"/>
      <point x="296" y="192" type="curve" smooth="yes"/>
      <point x="447" y="192"/>
      <point x="554" y="299"/>
      <point x="554" y="444" type="curve" smooth="yes"/>
    </contour>
  </outline>
</glyph>
<glyph name="uni0540" format="2">
  <advance width="692"/>
  <unicode hex="0540"/>
  <note>
uni0540
</note>
  <outline>
    <contour>
      <point x="562" y="507" type="curve"/>
      <point x="671" y="638" type="line"/>
      <point x="605" y="698"/>
      <point x="532" y="730"/>
      <point x="454" y="730" type="curve" smooth="yes"/>
      <point x="289" y="730"/>
      <point x="221" y="657"/>
      <point x="167" y="507" type="curve" smooth="yes"/>
      <point x="29" y="123" type="line"/>
      <point x="212" y="73" type="line"/>
      <point x="353" y="460" type="line" smooth="yes"/>
      <point x="382" y="541"/>
      <point x="403" y="570"/>
      <point x="454" y="570" type="curve" smooth="yes"/>
      <point x="495" y="570"/>
      <point x="532" y="545"/>
    </contour>
    <contour>
      <point x="29" y="123" type="line"/>
      <point x="328" y="23" type="line" smooth="yes"/>
      <point x="386" y="4"/>
      <point x="418" y="-24"/>
      <point x="418" y="-74" type="curve" smooth="yes"/>
      <point x="418" y="-145" type="line"/>
      <point x="609" y="-145" type="line"/>
      <point x="609" y="-46" type="line" smooth="yes"/>
      <point x="609" y="60"/>
      <point x="554" y="116"/>
      <point x="373" y="176" type="curve" smooth="yes"/>
      <point x="91" y="270" type="line"/>
    </contour>
  </outline>
</glyph>
<glyph name="uni0541" format="2">
  <advance width="673"/>
  <unicode hex="0541"/>
  <note>
uni0541
</note>
  <outline>
    <contour>
      <point x="311" y="724" type="curve" smooth="yes"/>
      <point x="155" y="724"/>
      <point x="41" y="641"/>
      <point x="41" y="526" type="curve" smooth="yes"/>
      <point x="41" y="411"/>
      <point x="114" y="349"/>
      <point x="296" y="349" type="curve" smooth="yes"/>
      <point x="347" y="349"/>
      <point x="388" y="352"/>
      <point x="444" y="360" type="curve"/>
      <point x="444" y="483" type="line"/>
      <point x="408" y="477"/>
      <point x="357" y="475"/>
      <point x="326" y="475" type="curve" smooth="yes"/>
      <point x="255" y="475"/>
      <point x="232" y="496"/>
      <point x="232" y="524" type="curve" smooth="yes"/>
      <point x="232" y="551"/>
      <point x="251" y="574"/>
      <point x="322" y="574" type="curve" smooth="yes"/>
      <point x="389" y="574"/>
      <point x="423" y="548"/>
      <point x="423" y="448" type="curve" smooth="yes"/>
      <point x="423" y="297"/>
      <point x="371" y="116"/>
      <point x="238" y="116" type="curve"/>
      <point x="238" y="-10" type="line"/>
      <point x="483" y="-10"/>
      <point x="614" y="235"/>
      <point x="614" y="425" type="curve" smooth="yes"/>
      <point x="614" y="630"/>
      <point x="503" y="724"/>
    </contour>
    <contour>
      <point x="652" y="-19" type="curve"/>
      <point x="652" y="149" type="line"/>
      <point x="506" y="249"/>
      <point x="371" y="312"/>
      <point x="231" y="312" type="curve" smooth="yes"/>
      <point x="112" y="312"/>
      <point x="33" y="249"/>
      <point x="33" y="149" type="curve" smooth="yes"/>
      <point x="33" y="52"/>
      <point x="94" y="-10"/>
      <point x="238" y="-10" type="curve"/>
      <point x="238" y="116" type="line"/>
      <point x="210" y="116"/>
      <point x="196" y="133"/>
      <point x="196" y="150" type="curve" smooth="yes"/>
      <point x="196" y="171"/>
      <point x="209" y="186"/>
      <point x="246" y="186" type="curve" smooth="yes"/>
      <point x="332" y="186"/>
      <point x="488" y="103"/>
    </contour>
  </outline>
</glyph>
<glyph name="uni0542" format="2">
  <advance width="789"/>
  <unicode hex="0542"/>
  <note>
uni0542
</note>
  <outline>
    <contour>
      <point x="610" y="0" type="line"/>
      <point x="610" y="459" type="line" smooth="yes"/>
      <point x="610" y="612"/>
      <point x="508" y="724"/>
      <point x="328" y="724" type="curve" smooth="yes"/>
      <point x="137" y="724"/>
      <point x="37" y="601"/>
      <point x="37" y="422" type="curve"/>
      <point x="228" y="422" type="line"/>
      <point x="228" y="526"/>
      <point x="258" y="566"/>
      <point x="322" y="566" type="curve" smooth="yes"/>
      <point x="383" y="566"/>
      <point x="419" y="536"/>
      <point x="419" y="426" type="curve" smooth="yes"/>
      <point x="419" y="0" type="line"/>
    </contour>
    <contour>
      <point x="593" y="158" type="line"/>
      <point x="593" y="0" type="line"/>
      <point x="771" y="0" type="line"/>
      <point x="771" y="158" type="line"/>
    </contour>
  </outline>
</glyph>
<glyph name="uni0543" format="2">
  <advance width="744"/>
  <unicode hex="0543"/>
  <note>
uni0543
</note>
  <outline>
    <contour>
      <point x="697" y="566" type="curve"/>
      <point x="697" y="724" type="line"/>
      <point x="275" y="724"/>
      <point x="35" y="444"/>
      <point x="35" y="183" type="curve" smooth="yes"/>
      <point x="35" y="102"/>
      <point x="72" y="0"/>
      <point x="253" y="0" type="curve" smooth="yes"/>
      <point x="684" y="0" type="line"/>
      <point x="684" y="160" type="line" smooth="yes"/>
      <point x="684" y="417"/>
      <point x="606" y="547"/>
      <point x="362" y="606" type="curve" smooth="yes"/>
      <point x="37" y="685" type="line"/>
      <point x="37" y="527" type="line"/>
      <point x="296" y="458" type="line" smooth="yes"/>
      <point x="458" y="415"/>
      <point x="491" y="359"/>
      <point x="491" y="179" type="curve" smooth="yes"/>
      <point x="491" y="158" type="line"/>
      <point x="294" y="158" type="line" smooth="yes"/>
      <point x="243" y="158"/>
      <point x="228" y="179"/>
      <point x="228" y="220" type="curve" smooth="yes"/>
      <point x="228" y="405"/>
      <point x="385" y="566"/>
    </contour>
  </outline>
</glyph>
<glyph name="uni0544" format="2">
  <advance width="811"/>
  <unicode hex="0544"/>
  <note>
uni0544
</note>
  <outline>
    <contour>
      <point x="367" y="-10" type="curve" smooth="yes"/>
      <point x="558" y="-10"/>
      <point x="653" y="102"/>
      <point x="653" y="255" type="curve" smooth="yes"/>
      <point x="653" y="556" type="line"/>
      <point x="795" y="556" type="line"/>
      <point x="795" y="714" type="line"/>
      <point x="462" y="714" type="line"/>
      <point x="462" y="286" type="line" smooth="yes"/>
      <point x="462" y="178"/>
      <point x="432" y="148"/>
      <point x="362" y="148" type="curve" smooth="yes"/>
      <point x="288" y="148"/>
      <point x="264" y="188"/>
      <point x="264" y="283" type="curve" smooth="yes"/>
      <point x="264" y="714" type="line"/>
      <point x="73" y="714" type="line"/>
      <point x="73" y="251" type="line" smooth="yes"/>
      <point x="73" y="111"/>
      <point x="167" y="-10"/>
    </contour>
  </outline>
</glyph>
<glyph name="uni0545" format="2">
  <advance width="634"/>
  <unicode hex="0545"/>
  <note>
uni0545
</note>
  <outline>
    <contour>
      <point x="574" y="546" type="curve" smooth="yes"/>
      <point x="574" y="645"/>
      <point x="489" y="724"/>
      <point x="329" y="724" type="curve" smooth="yes"/>
      <point x="203" y="724"/>
      <point x="102" y="694"/>
      <point x="37" y="645" type="curve"/>
      <point x="120" y="512" type="line"/>
      <point x="155" y="544"/>
      <point x="216" y="566"/>
      <point x="287" y="566" type="curve" smooth="yes"/>
      <point x="365" y="566"/>
      <point x="383" y="540"/>
      <point x="383" y="514" type="curve" smooth="yes"/>
      <point x="383" y="480"/>
      <point x="345" y="450"/>
      <point x="166" y="450" type="curve" smooth="yes"/>
      <point x="37" y="450" type="line"/>
      <point x="37" y="292" type="line"/>
      <point x="176" y="292" type="line" smooth="yes"/>
      <point x="372" y="292"/>
      <point x="399" y="266"/>
      <point x="399" y="220" type="curve" smooth="yes"/>
      <point x="399" y="176"/>
      <point x="368" y="148"/>
      <point x="286" y="148" type="curve" smooth="yes"/>
      <point x="213" y="148"/>
      <point x="103" y="164"/>
      <point x="48" y="196" type="curve"/>
      <point x="48" y="28" type="line"/>
      <point x="104" y="3"/>
      <point x="209" y="-10"/>
      <point x="313" y="-10" type="curve" smooth="yes"/>
      <point x="498" y="-10"/>
      <point x="596" y="80"/>
      <point x="596" y="206" type="curve" smooth="yes"/>
      <point x="596" y="297"/>
      <point x="533" y="361"/>
      <point x="397" y="373" type="curve"/>
      <point x="397" y="376" type="line"/>
      <point x="507" y="391"/>
      <point x="574" y="449"/>
    </contour>
  </outline>
</glyph>
<glyph name="uni0546" format="2">
  <advance width="705"/>
  <unicode hex="0546"/>
  <note>
uni0546
</note>
  <outline>
    <contour>
      <point x="350" y="-10" type="curve" smooth="yes"/>
      <point x="535" y="-10"/>
      <point x="658" y="99"/>
      <point x="658" y="272" type="curve" smooth="yes"/>
      <point x="658" y="421" type="line"/>
      <point x="467" y="421" type="line"/>
      <point x="467" y="285" type="line" smooth="yes"/>
      <point x="467" y="197"/>
      <point x="434" y="148"/>
      <point x="350" y="148" type="curve" smooth="yes"/>
      <point x="283" y="148"/>
      <point x="235" y="193"/>
      <point x="235" y="282" type="curve"/>
      <point x="44" y="282" type="line"/>
      <point x="44" y="97"/>
      <point x="171" y="-10"/>
    </contour>
    <contour>
      <point x="393" y="646" type="line"/>
      <point x="347" y="646" type="line" smooth="yes"/>
      <point x="278" y="646"/>
      <point x="251" y="660"/>
      <point x="251" y="745" type="curve" smooth="yes"/>
      <point x="251" y="760" type="line"/>
      <point x="60" y="760" type="line"/>
      <point x="60" y="747" type="line" smooth="yes"/>
      <point x="60" y="600"/>
      <point x="123" y="546"/>
      <point x="246" y="546" type="curve" smooth="yes"/>
      <point x="267" y="546" type="line"/>
      <point x="400" y="632" type="line"/>
    </contour>
    <contour>
      <point x="235" y="282" type="line"/>
      <point x="235" y="393"/>
      <point x="313" y="542"/>
      <point x="400" y="632" type="curve"/>
      <point x="218" y="632" type="line"/>
      <point x="105" y="525"/>
      <point x="44" y="408"/>
      <point x="44" y="282" type="curve"/>
    </contour>
  </outline>
</glyph>
<glyph name="uni0547" format="2">
  <advance width="698"/>
  <unicode hex="0547"/>
  <note>
uni0547
</note>
  <outline>
    <contour>
      <point x="452" y="555" type="curve"/>
      <point x="242" y="593" type="line"/>
      <point x="124" y="529"/>
      <point x="53" y="381"/>
      <point x="53" y="272" type="curve" smooth="yes"/>
      <point x="53" y="90"/>
      <point x="173" y="-10"/>
      <point x="352" y="-10" type="curve" smooth="yes"/>
      <point x="526" y="-10"/>
      <point x="648" y="88"/>
      <point x="648" y="260" type="curve" smooth="yes"/>
      <point x="648" y="270" type="line"/>
      <point x="458" y="270" type="line"/>
      <point x="458" y="265" type="line" smooth="yes"/>
      <point x="458" y="187"/>
      <point x="425" y="148"/>
      <point x="352" y="148" type="curve" smooth="yes"/>
      <point x="284" y="148"/>
      <point x="244" y="186"/>
      <point x="244" y="270" type="curve" smooth="yes"/>
      <point x="244" y="364"/>
      <point x="310" y="476"/>
    </contour>
    <contour>
      <point x="73" y="724" type="line"/>
      <point x="54" y="566" type="line"/>
      <point x="617" y="517" type="line"/>
      <point x="637" y="674" type="line"/>
    </contour>
  </outline>
</glyph>
<glyph name="uni0548" format="2">
  <advance width="725"/>
  <unicode hex="0548"/>
  <note>
uni0548
</note>
  <anchor x="362" y="714" name="top"/>
  <outline>
    <contour>
      <point x="72" y="0" type="line"/>
      <point x="263" y="0" type="line"/>
      <point x="263" y="427" type="line" smooth="yes"/>
      <point x="263" y="525"/>
      <point x="285" y="566"/>
      <point x="361" y="566" type="curve" smooth="yes"/>
      <point x="429" y="566"/>
      <point x="461" y="537"/>
      <point x="461" y="432" type="curve" smooth="yes"/>
      <point x="461" y="0" type="line"/>
      <point x="652" y="0" type="line"/>
      <point x="652" y="460" type="line" smooth="yes"/>
      <point x="652" y="615"/>
      <point x="553" y="724"/>
      <point x="366" y="724" type="curve" smooth="yes"/>
      <point x="162" y="724"/>
      <point x="72" y="600"/>
      <point x="72" y="462" type="curve" smooth="yes"/>
    </contour>
  </outline>
</glyph>
<glyph name="uni0549" format="2">
  <advance width="650"/>
  <unicode hex="0549"/>
  <note>
uni0549
</note>
  <outline>
    <contour>
      <point x="380" y="108" type="line"/>
      <point x="495" y="201"/>
      <point x="609" y="322"/>
      <point x="609" y="461" type="curve" smooth="yes"/>
      <point x="609" y="629"/>
      <point x="508" y="722"/>
      <point x="325" y="722" type="curve" smooth="yes"/>
      <point x="150" y="722"/>
      <point x="46" y="631"/>
      <point x="46" y="478" type="curve" smooth="yes"/>
      <point x="46" y="460" type="line"/>
      <point x="237" y="460" type="line"/>
      <point x="237" y="465" type="line" smooth="yes"/>
      <point x="237" y="525"/>
      <point x="251" y="564"/>
      <point x="325" y="564" type="curve" smooth="yes"/>
      <point x="396" y="564"/>
      <point x="418" y="526"/>
      <point x="418" y="455" type="curve" smooth="yes"/>
      <point x="418" y="358"/>
      <point x="359" y="309"/>
      <point x="255" y="204" type="curve"/>
    </contour>
    <contour>
      <point x="569" y="-1" type="curve"/>
      <point x="569" y="157" type="line"/>
      <point x="454" y="157"/>
      <point x="265" y="253"/>
      <point x="150" y="351" type="curve"/>
      <point x="42" y="223" type="line"/>
      <point x="214" y="83"/>
      <point x="403" y="-1"/>
    </contour>
  </outline>
</glyph>
<glyph name="uni054A" format="2">
  <advance width="903"/>
  <unicode hex="054A"/>
  <note>
uni054A
</note>
  <outline>
    <contour>
      <point x="55" y="330" type="line"/>
      <point x="246" y="330" type="line"/>
      <point x="246" y="430" type="line" smooth="yes"/>
      <point x="246" y="528"/>
      <point x="296" y="569"/>
      <point x="442" y="569" type="curve" smooth="yes"/>
      <point x="573" y="569"/>
      <point x="639" y="540"/>
      <point x="639" y="435" type="curve" smooth="yes"/>
      <point x="639" y="0" type="line"/>
      <point x="830" y="0" type="line"/>
      <point x="830" y="460" type="line" smooth="yes"/>
      <point x="830" y="615"/>
      <point x="697" y="724"/>
      <point x="449" y="724" type="curve" smooth="yes"/>
      <point x="178" y="724"/>
      <point x="55" y="600"/>
      <point x="55" y="462" type="curve" smooth="yes"/>
    </contour>
    <contour>
      <point x="347" y="163" type="line"/>
      <point x="539" y="163" type="line"/>
      <point x="539" y="619" type="line"/>
      <point x="347" y="619" type="line"/>
    </contour>
  </outline>
</glyph>
<glyph name="uni054B" format="2">
  <advance width="693"/>
  <unicode hex="054B"/>
  <note>
uni054B
</note>
  <outline>
    <contour>
      <point x="503" y="0" type="line"/>
      <point x="679" y="0" type="line"/>
      <point x="679" y="71" type="line" smooth="yes"/>
      <point x="679" y="175"/>
      <point x="631" y="208"/>
      <point x="534" y="208" type="curve" smooth="yes"/>
      <point x="175" y="208" type="line"/>
      <point x="175" y="249" type="line"/>
      <point x="17" y="249" type="line"/>
      <point x="17" y="0" type="line"/>
      <point x="175" y="0" type="line"/>
      <point x="175" y="58" type="line"/>
      <point x="442" y="58" type="line" smooth="yes"/>
      <point x="492" y="58"/>
      <point x="503" y="48"/>
      <point x="503" y="18" type="curve" smooth="yes"/>
    </contour>
    <contour>
      <point x="369" y="303" type="curve"/>
      <point x="362" y="335"/>
      <point x="347" y="353"/>
      <point x="305" y="382" type="curve" smooth="yes"/>
      <point x="261" y="413"/>
      <point x="251" y="454"/>
      <point x="251" y="488" type="curve" smooth="yes"/>
      <point x="251" y="538"/>
      <point x="273" y="575"/>
      <point x="339" y="575" type="curve" smooth="yes"/>
      <point x="393" y="575"/>
      <point x="427" y="543"/>
      <point x="427" y="476" type="curve" smooth="yes"/>
      <point x="427" y="408"/>
      <point x="410" y="353"/>
    </contour>
    <contour>
      <point x="190" y="208" type="curve"/>
      <point x="457" y="208" type="line"/>
      <point x="576" y="302"/>
      <point x="618" y="381"/>
      <point x="618" y="489" type="curve" smooth="yes"/>
      <point x="618" y="648"/>
      <point x="506" y="725"/>
      <point x="338" y="725" type="curve" smooth="yes"/>
      <point x="172" y="725"/>
      <point x="60" y="633"/>
      <point x="60" y="495" type="curve" smooth="yes"/>
      <point x="60" y="402"/>
      <point x="91" y="346"/>
      <point x="174" y="297" type="curve" smooth="yes"/>
      <point x="225" y="267"/>
      <point x="232" y="249"/>
      <point x="232" y="226" type="curve"/>
      <point x="223" y="218"/>
      <point x="201" y="210"/>
    </contour>
  </outline>
</glyph>
<glyph name="uni054C" format="2">
  <advance width="819"/>
  <unicode hex="054C"/>
  <note>
uni054C
</note>
  <outline>
    <contour>
      <point x="73" y="0" type="line"/>
      <point x="264" y="0" type="line"/>
      <point x="264" y="427" type="line" smooth="yes"/>
      <point x="264" y="525"/>
      <point x="289" y="566"/>
      <point x="365" y="566" type="curve" smooth="yes"/>
      <point x="433" y="566"/>
      <point x="468" y="537"/>
      <point x="468" y="432" type="curve" smooth="yes"/>
      <point x="468" y="0" type="line"/>
      <point x="659" y="0" type="line"/>
      <point x="659" y="460" type="line" smooth="yes"/>
      <point x="659" y="615"/>
      <point x="557" y="724"/>
      <point x="370" y="724" type="curve" smooth="yes"/>
      <point x="166" y="724"/>
      <point x="73" y="600"/>
      <point x="73" y="462" type="curve" smooth="yes"/>
    </contour>
    <contour>
      <point x="642" y="361" type="line"/>
      <point x="642" y="203" type="line"/>
      <point x="800" y="203" type="line"/>
      <point x="800" y="361" type="line"/>
    </contour>
  </outline>
</glyph>
<glyph name="uni054D" format="2">
  <advance width="725"/>
  <unicode hex="054D"/>
  <note>
uni054D
</note>
  <outline>
    <contour>
      <point x="653" y="714" type="line"/>
      <point x="462" y="714" type="line"/>
      <point x="462" y="287" type="line" smooth="yes"/>
      <point x="462" y="189"/>
      <point x="440" y="148"/>
      <point x="364" y="148" type="curve" smooth="yes"/>
      <point x="296" y="148"/>
      <point x="264" y="177"/>
      <point x="264" y="282" type="curve" smooth="yes"/>
      <point x="264" y="714" type="line"/>
      <point x="73" y="714" type="line"/>
      <point x="73" y="254" type="line" smooth="yes"/>
      <point x="73" y="99"/>
      <point x="172" y="-10"/>
      <point x="359" y="-10" type="curve" smooth="yes"/>
      <point x="563" y="-10"/>
      <point x="653" y="114"/>
      <point x="653" y="252" type="curve" smooth="yes"/>
    </contour>
  </outline>
</glyph>
<glyph name="uni054E" format="2">
  <advance width="837"/>
  <unicode hex="054E"/>
  <note>
uni054E
</note>
  <outline>
    <contour>
      <point x="672" y="0" type="line"/>
      <point x="672" y="715" type="line"/>
      <point x="481" y="715" type="line"/>
      <point x="481" y="234" type="line"/>
      <point x="489" y="234" type="line"/>
      <point x="483" y="202"/>
      <point x="481" y="147"/>
      <point x="481" y="131" type="curve" smooth="yes"/>
      <point x="481" y="0" type="line"/>
    </contour>
    <contour>
      <point x="542" y="574" type="line"/>
      <point x="481" y="574" type="line"/>
      <point x="481" y="523" type="line" smooth="yes"/>
      <point x="481" y="388"/>
      <point x="455" y="304"/>
      <point x="341" y="304" type="curve" smooth="yes"/>
      <point x="275" y="304"/>
      <point x="239" y="346"/>
      <point x="239" y="425" type="curve" smooth="yes"/>
      <point x="239" y="455" type="line"/>
      <point x="48" y="455" type="line"/>
      <point x="48" y="376" type="line" smooth="yes"/>
      <point x="48" y="214"/>
      <point x="153" y="146"/>
      <point x="279" y="146" type="curve" smooth="yes"/>
      <point x="430" y="146"/>
      <point x="542" y="254"/>
      <point x="542" y="399" type="curve" smooth="yes"/>
    </contour>
    <contour>
      <point x="641" y="158" type="line"/>
      <point x="641" y="0" type="line"/>
      <point x="819" y="0" type="line"/>
      <point x="819" y="158" type="line"/>
    </contour>
  </outline>
</glyph>
<glyph name="uni054F" format="2">
  <advance width="604"/>
  <unicode hex="054F"/>
  <note>
uni054F
</note>
  <outline>
    <contour>
      <point x="561" y="204" type="curve" smooth="yes"/>
      <point x="561" y="314"/>
      <point x="505" y="386"/>
      <point x="347" y="440" type="curve" smooth="yes"/>
      <point x="240" y="477"/>
      <point x="233" y="489"/>
      <point x="233" y="520" type="curve" smooth="yes"/>
      <point x="233" y="546"/>
      <point x="247" y="564"/>
      <point x="309" y="564" type="curve" smooth="yes"/>
      <point x="364" y="564"/>
      <point x="421" y="552"/>
      <point x="504" y="516" type="curve"/>
      <point x="549" y="670" type="line"/>
      <point x="463" y="706"/>
      <point x="390" y="724"/>
      <point x="318" y="724" type="curve" smooth="yes"/>
      <point x="146" y="724"/>
      <point x="46" y="644"/>
      <point x="46" y="514" type="curve" smooth="yes"/>
      <point x="46" y="396"/>
      <point x="80" y="357"/>
      <point x="250" y="294" type="curve" smooth="yes"/>
      <point x="365" y="251"/>
      <point x="374" y="235"/>
      <point x="374" y="198" type="curve" smooth="yes"/>
      <point x="374" y="172"/>
      <point x="361" y="150"/>
      <point x="278" y="150" type="curve" smooth="yes"/>
      <point x="214" y="150"/>
      <point x="137" y="172"/>
      <point x="38" y="222" type="curve"/>
      <point x="38" y="51" type="line"/>
      <point x="111" y="12"/>
      <point x="201" y="-10"/>
      <point x="283" y="-10" type="curve" smooth="yes"/>
      <point x="468" y="-10"/>
      <point x="561" y="77"/>
    </contour>
  </outline>
</glyph>
<glyph name="uni0550" format="2">
  <advance width="664"/>
  <unicode hex="0550"/>
  <note>
uni0550
</note>
  <outline>
    <contour>
      <point x="73" y="0" type="line"/>
      <point x="264" y="0" type="line"/>
      <point x="264" y="425" type="line" smooth="yes"/>
      <point x="264" y="525"/>
      <point x="283" y="566"/>
      <point x="349" y="566" type="curve" smooth="yes"/>
      <point x="415" y="566"/>
      <point x="436" y="528"/>
      <point x="436" y="420" type="curve"/>
      <point x="627" y="420" type="line"/>
      <point x="627" y="618"/>
      <point x="542" y="724"/>
      <point x="354" y="724" type="curve" smooth="yes"/>
      <point x="160" y="724"/>
      <point x="73" y="600"/>
      <point x="73" y="462" type="curve" smooth="yes"/>
    </contour>
  </outline>
</glyph>
<glyph name="uni0551" format="2">
  <advance width="630"/>
  <unicode hex="0551"/>
  <note>
uni0551
</note>
  <outline>
    <contour>
      <point x="371" y="435" type="line"/>
      <point x="253" y="473"/>
      <point x="229" y="495"/>
      <point x="229" y="536" type="curve" smooth="yes"/>
      <point x="229" y="567"/>
      <point x="253" y="584"/>
      <point x="294" y="584" type="curve" smooth="yes"/>
      <point x="331" y="584"/>
      <point x="359" y="567"/>
      <point x="359" y="537" type="curve" smooth="yes"/>
      <point x="359" y="511"/>
      <point x="350" y="491"/>
      <point x="303" y="473" type="curve" smooth="yes"/>
      <point x="46" y="372" type="line"/>
      <point x="98" y="231" type="line"/>
      <point x="312" y="323" type="line"/>
      <point x="397" y="285"/>
      <point x="404" y="252"/>
      <point x="404" y="215" type="curve" smooth="yes"/>
      <point x="404" y="168"/>
      <point x="357" y="148"/>
      <point x="274" y="148" type="curve" smooth="yes"/>
      <point x="221" y="148"/>
      <point x="151" y="164"/>
      <point x="63" y="209" type="curve"/>
      <point x="63" y="41" type="line"/>
      <point x="117" y="12"/>
      <point x="210" y="-10"/>
      <point x="281" y="-10" type="curve" smooth="yes"/>
      <point x="471" y="-10"/>
      <point x="596" y="68"/>
      <point x="596" y="212" type="curve" smooth="yes"/>
      <point x="596" y="288"/>
      <point x="566" y="369"/>
      <point x="467" y="408" type="curve"/>
      <point x="467" y="414" type="line"/>
      <point x="529" y="459"/>
      <point x="550" y="494"/>
      <point x="550" y="550" type="curve" smooth="yes"/>
      <point x="550" y="659"/>
      <point x="460" y="724"/>
      <point x="294" y="724" type="curve" smooth="yes"/>
      <point x="155" y="724"/>
      <point x="38" y="654"/>
      <point x="38" y="550" type="curve" smooth="yes"/>
      <point x="38" y="450"/>
      <point x="101" y="411"/>
      <point x="239" y="345" type="curve"/>
    </contour>
  </outline>
</glyph>
<glyph name="uni0552" format="2">
  <advance width="652"/>
  <unicode hex="0552"/>
  <note>
uni0552
</note>
  <outline>
    <contour>
      <point x="77" y="0" type="line"/>
      <point x="268" y="0" type="line"/>
      <point x="268" y="416" type="line"/>
      <point x="296" y="416" type="line" smooth="yes"/>
      <point x="334" y="416"/>
      <point x="346" y="393"/>
      <point x="402" y="281" type="curve" smooth="yes"/>
      <point x="438" y="210"/>
      <point x="504" y="167"/>
      <point x="590" y="167" type="curve" smooth="yes"/>
      <point x="625" y="167" type="line"/>
      <point x="625" y="325" type="line"/>
      <point x="610" y="325" type="line" smooth="yes"/>
      <point x="579" y="325"/>
      <point x="564" y="333"/>
      <point x="513" y="431" type="curve" smooth="yes"/>
      <point x="453" y="546"/>
      <point x="414" y="574"/>
      <point x="309" y="574" type="curve" smooth="yes"/>
      <point x="268" y="574" type="line"/>
      <point x="268" y="714" type="line"/>
      <point x="77" y="714" type="line"/>
    </contour>
  </outline>
</glyph>
<glyph name="uni0553" format="2">
  <advance width="891"/>
  <unicode hex="0553"/>
  <note>
uni0553
</note>
  <outline>
    <contour>
      <point x="531" y="709" type="line"/>
      <point x="360" y="709" type="line"/>
      <point x="360" y="636" type="line"/>
      <point x="113" y="629"/>
      <point x="38" y="497"/>
      <point x="38" y="369" type="curve" smooth="yes"/>
      <point x="38" y="273"/>
      <point x="91" y="106"/>
      <point x="360" y="100" type="curve"/>
      <point x="360" y="5" type="line"/>
      <point x="531" y="5" type="line"/>
      <point x="531" y="100" type="line"/>
      <point x="795" y="106"/>
      <point x="853" y="268"/>
      <point x="853" y="367" type="curve" smooth="yes"/>
      <point x="853" y="491"/>
      <point x="782" y="629"/>
      <point x="531" y="636" type="curve"/>
    </contour>
    <contour>
      <point x="360" y="488" type="curve"/>
      <point x="360" y="248" type="line"/>
      <point x="253" y="253"/>
      <point x="217" y="306"/>
      <point x="217" y="371" type="curve" smooth="yes"/>
      <point x="217" y="427"/>
      <point x="243" y="481"/>
    </contour>
    <contour>
      <point x="531" y="488" type="line"/>
      <point x="646" y="481"/>
      <point x="674" y="424"/>
      <point x="674" y="369" type="curve" smooth="yes"/>
      <point x="674" y="305"/>
      <point x="639" y="253"/>
      <point x="531" y="248" type="curve"/>
    </contour>
  </outline>
</glyph>
<glyph name="uni0554" format="2">
  <advance width="681"/>
  <unicode hex="0554"/>
  <note>
uni0554
</note>
  <outline>
    <contour>
      <point x="107" y="0" type="line"/>
      <point x="298" y="0" type="line"/>
      <point x="298" y="281" type="line"/>
      <point x="381" y="281" type="line" smooth="yes"/>
      <point x="549" y="281"/>
      <point x="633" y="362"/>
      <point x="633" y="494" type="curve" smooth="yes"/>
      <point x="633" y="624"/>
      <point x="538" y="724"/>
      <point x="372" y="724" type="curve" smooth="yes"/>
      <point x="210" y="724"/>
      <point x="107" y="624"/>
      <point x="107" y="460" type="curve" smooth="yes"/>
    </contour>
    <contour>
      <point x="298" y="439" type="line"/>
      <point x="298" y="543"/>
      <point x="322" y="565"/>
      <point x="375" y="565" type="curve" smooth="yes"/>
      <point x="429" y="565"/>
      <point x="441" y="531"/>
      <point x="441" y="495" type="curve" smooth="yes"/>
      <point x="441" y="457"/>
      <point x="418" y="439"/>
      <point x="378" y="439" type="curve" smooth="yes"/>
    </contour>
    <contour>
      <point x="7" y="219" type="line"/>
      <point x="7" y="61" type="line"/>
      <point x="631" y="61" type="line"/>
      <point x="631" y="219" type="line"/>
    </contour>
  </outline>
</glyph>
<glyph name="uni0555" format="2">
  <advance width="797"/>
  <unicode hex="0555"/>
  <note>
uni0555
</note>
  <anchor x="398" y="714" name="top"/>
  <outline>
    <contour>
      <point x="747" y="358" type="curve" smooth="yes"/>
      <point x="747" y="577"/>
      <point x="641" y="725"/>
      <point x="398" y="725" type="curve" smooth="yes"/>
      <point x="155" y="725"/>
      <point x="50" y="582"/>
      <point x="50" y="359" type="curve" smooth="yes"/>
      <point x="50" y="135"/>
      <point x="158" y="-10"/>
      <point x="399" y="-10" type="curve" smooth="yes"/>
      <point x="639" y="-10"/>
      <point x="747" y="135"/>
    </contour>
    <contour>
      <point x="251" y="358" type="curve" smooth="yes"/>
      <point x="251" y="493"/>
      <point x="292" y="567"/>
      <point x="398" y="567" type="curve" smooth="yes"/>
      <point x="509" y="567"/>
      <point x="545" y="487"/>
      <point x="545" y="358" type="curve" smooth="yes"/>
      <point x="545" y="223"/>
      <point x="506" y="148"/>
      <point x="398" y="148" type="curve" smooth="yes"/>
      <point x="293" y="148"/>
      <point x="251" y="222"/>
    </contour>
  </outline>
</glyph>
<glyph name="uni0556" format="2">
  <advance width="842"/>
  <unicode hex="0556"/>
  <note>
uni0556
</note>
  <outline>
    <contour>
      <point x="409" y="-10" type="curve" smooth="yes"/>
      <point x="659" y="-10"/>
      <point x="801" y="50"/>
      <point x="801" y="220" type="curve" smooth="yes"/>
      <point x="801" y="342"/>
      <point x="737" y="415"/>
      <point x="510" y="436" type="curve"/>
      <point x="510" y="714" type="line"/>
      <point x="329" y="714" type="line" smooth="yes"/>
      <point x="157" y="714"/>
      <point x="54" y="634"/>
      <point x="54" y="505" type="curve" smooth="yes"/>
      <point x="54" y="402"/>
      <point x="108" y="328"/>
      <point x="319" y="303" type="curve"/>
      <point x="319" y="148" type="line"/>
      <point x="232" y="153"/>
      <point x="142" y="180"/>
      <point x="40" y="232" type="curve"/>
      <point x="40" y="62" type="line"/>
      <point x="147" y="9"/>
      <point x="277" y="-10"/>
    </contour>
    <contour>
      <point x="510" y="148" type="curve"/>
      <point x="510" y="286" type="line"/>
      <point x="562" y="283"/>
      <point x="615" y="272"/>
      <point x="615" y="217" type="curve" smooth="yes"/>
      <point x="615" y="169"/>
      <point x="577" y="150"/>
    </contour>
    <contour>
      <point x="320" y="453" type="line"/>
      <point x="255" y="460"/>
      <point x="242" y="477"/>
      <point x="242" y="503" type="curve" smooth="yes"/>
      <point x="242" y="538"/>
      <point x="254" y="556"/>
      <point x="313" y="556" type="curve" smooth="yes"/>
      <point x="320" y="556" type="line"/>
    </contour>
  </outline>
</glyph>
<glyph name="uni0559" format="2">
  <advance width="252"/>
  <unicode hex="0559"/>
  <note>
uni0559
</note>
  <outline>
    <contour>
      <point x="208" y="431" type="curve"/>
      <point x="208" y="589" type="line"/>
      <point x="184" y="589"/>
      <point x="172" y="594"/>
      <point x="172" y="613" type="curve" smooth="yes"/>
      <point x="172" y="622"/>
      <point x="182" y="639"/>
      <point x="228" y="669" type="curve"/>
      <point x="163" y="760" type="line"/>
      <point x="56" y="711"/>
      <point x="9" y="646"/>
      <point x="9" y="583" type="curve" smooth="yes"/>
      <point x="9" y="497"/>
      <point x="70" y="431"/>
    </contour>
  </outline>
</glyph>
<glyph name="uni055A" format="2">
  <advance width="252"/>
  <unicode hex="055A"/>
  <note>
uni055A
</note>
  <outline>
    <contour>
      <point x="44" y="760" type="curve"/>
      <point x="44" y="602" type="line"/>
      <point x="69" y="602"/>
      <point x="80" y="597"/>
      <point x="80" y="578" type="curve" smooth="yes"/>
      <point x="80" y="569"/>
      <point x="70" y="552"/>
      <point x="24" y="522" type="curve"/>
      <point x="89" y="431" type="line"/>
      <point x="196" y="481"/>
      <point x="243" y="545"/>
      <point x="243" y="608" type="curve" smooth="yes"/>
      <point x="243" y="694"/>
      <point x="182" y="760"/>
    </contour>
  </outline>
</glyph>
<glyph name="uni055B" format="2">
  <advance width="330"/>
  <unicode hex="055B"/>
  <note>
uni055B
</note>
  <outline>
    <contour>
      <point x="254" y="814" type="line"/>
      <point x="92" y="814" type="line"/>
      <point x="87" y="786"/>
      <point x="79" y="734"/>
      <point x="57" y="614" type="curve"/>
      <point x="194" y="614" type="line"/>
      <point x="225" y="691"/>
      <point x="245" y="744"/>
      <point x="263" y="798" type="curve"/>
    </contour>
  </outline>
</glyph>
<glyph name="uni055C" format="2">
  <advance width="310"/>
  <unicode hex="055C"/>
  <note>
uni055C
</note>
  <outline>
    <contour>
      <point x="11" y="603" type="curve"/>
      <point x="169" y="603" type="line"/>
      <point x="169" y="615" type="line" smooth="yes"/>
      <point x="169" y="633"/>
      <point x="176" y="647"/>
      <point x="225" y="675" type="curve" smooth="yes"/>
      <point x="293" y="714"/>
      <point x="300" y="740"/>
      <point x="300" y="814" type="curve"/>
      <point x="141" y="814" type="line"/>
      <point x="141" y="803" type="line" smooth="yes"/>
      <point x="141" y="778"/>
      <point x="135" y="770"/>
      <point x="77" y="732" type="curve" smooth="yes"/>
      <point x="23" y="696"/>
      <point x="11" y="671"/>
    </contour>
  </outline>
</glyph>
<glyph name="uni055D" format="2">
  <advance width="330"/>
  <unicode hex="055D"/>
  <note>
uni055D
</note>
  <outline>
    <contour>
      <point x="77" y="814" type="line"/>
      <point x="67" y="798" type="line"/>
      <point x="86" y="745"/>
      <point x="107" y="687"/>
      <point x="136" y="614" type="curve"/>
      <point x="273" y="614" type="line"/>
      <point x="253" y="730"/>
      <point x="243" y="791"/>
      <point x="238" y="814" type="curve"/>
    </contour>
  </outline>
</glyph>
<glyph name="uni055E" format="2">
  <advance width="431"/>
  <unicode hex="055E"/>
  <note>
uni055E
</note>
  <outline>
    <contour>
      <point x="38" y="595" type="curve"/>
      <point x="183" y="595" type="line"/>
      <point x="186" y="710"/>
      <point x="205" y="747"/>
      <point x="244" y="747" type="curve" smooth="yes"/>
      <point x="255" y="747"/>
      <point x="262" y="740"/>
      <point x="262" y="733" type="curve" smooth="yes"/>
      <point x="262" y="723"/>
      <point x="258" y="708"/>
      <point x="236" y="709" type="curve"/>
      <point x="236" y="597" type="line"/>
      <point x="344" y="596"/>
      <point x="399" y="654"/>
      <point x="399" y="736" type="curve" smooth="yes"/>
      <point x="399" y="824"/>
      <point x="336" y="871"/>
      <point x="253" y="871" type="curve" smooth="yes"/>
      <point x="127" y="871"/>
      <point x="40" y="751"/>
    </contour>
  </outline>
</glyph>
<glyph name="uni055F" format="2">
  <advance width="386"/>
  <unicode hex="055F"/>
  <note>
uni055F
</note>
  <outline>
    <contour>
      <point x="188" y="597" type="curve" smooth="yes"/>
      <point x="381" y="597" type="line"/>
      <point x="381" y="721" type="line"/>
      <point x="197" y="721" type="line" smooth="yes"/>
      <point x="179" y="721"/>
      <point x="170" y="721"/>
      <point x="170" y="741" type="curve" smooth="yes"/>
      <point x="170" y="749"/>
      <point x="177" y="755"/>
      <point x="194" y="755" type="curve" smooth="yes"/>
      <point x="201" y="755"/>
      <point x="216" y="753"/>
      <point x="240" y="744" type="curve"/>
      <point x="276" y="863" type="line"/>
      <point x="242" y="874"/>
      <point x="214" y="879"/>
      <point x="182" y="879" type="curve" smooth="yes"/>
      <point x="96" y="879"/>
      <point x="25" y="819"/>
      <point x="25" y="733" type="curve" smooth="yes"/>
      <point x="25" y="639"/>
      <point x="78" y="597"/>
    </contour>
  </outline>
</glyph>
<glyph name="uni0560" format="2">
  <advance width="991"/>
  <unicode hex="0560"/>
  <note>
uni0561
</note>
  <outline>
    <contour>
      <point x="727" y="517" type="curve" smooth="yes"/>
      <point x="667" y="517"/>
      <point x="599" y="488"/>
      <point x="570" y="448" type="curve"/>
      <point x="560" y="448" type="line"/>
      <point x="523" y="494"/>
      <point x="468" y="517"/>
      <point x="390" y="517" type="curve" smooth="yes"/>
      <point x="326" y="517"/>
      <point x="275" y="497"/>
      <point x="245" y="454" type="curve"/>
      <point x="235" y="454" type="line"/>
      <point x="213" y="508" type="line"/>
      <point x="66" y="508" type="line"/>
      <point x="66" y="0" type="line"/>
      <point x="255" y="0" type="line"/>
      <point x="255" y="206" type="line" smooth="yes"/>
      <point x="255" y="308"/>
      <point x="278" y="368"/>
      <point x="334" y="368" type="curve" smooth="yes"/>
      <point x="377" y="368"/>
      <point x="402" y="336"/>
      <point x="402" y="287" type="curve" smooth="yes"/>
      <point x="402" y="0" type="line"/>
      <point x="591" y="0" type="line"/>
      <point x="591" y="206" type="line" smooth="yes"/>
      <point x="591" y="308"/>
      <point x="617" y="368"/>
      <point x="673" y="368" type="curve" smooth="yes"/>
      <point x="715" y="368"/>
      <point x="739" y="336"/>
      <point x="739" y="287" type="curve" smooth="yes"/>
      <point x="739" y="0" type="line"/>
      <point x="927" y="0" type="line"/>
      <point x="927" y="330" type="line" smooth="yes"/>
      <point x="927" y="449"/>
      <point x="860" y="517"/>
    </contour>
  </outline>
</glyph>
<glyph name="uni0561" format="2">
  <advance width="991"/>
  <unicode hex="0561"/>
  <note>
uni0561
</note>
  <anchor x="495" y="492" name="top"/>
  <outline>
    <contour>
      <point x="264" y="-9" type="curve" smooth="yes"/>
      <point x="324" y="-9"/>
      <point x="392" y="20"/>
      <point x="421" y="60" type="curve"/>
      <point x="431" y="60" type="line"/>
      <point x="468" y="14"/>
      <point x="523" y="-9"/>
      <point x="601" y="-9" type="curve" smooth="yes"/>
      <point x="665" y="-9"/>
      <point x="716" y="11"/>
      <point x="746" y="54" type="curve"/>
      <point x="756" y="54" type="line"/>
      <point x="778" y="0" type="line"/>
      <point x="925" y="0" type="line"/>
      <point x="925" y="508" type="line"/>
      <point x="736" y="508" type="line"/>
      <point x="736" y="302" type="line" smooth="yes"/>
      <point x="736" y="200"/>
      <point x="713" y="140"/>
      <point x="657" y="140" type="curve" smooth="yes"/>
      <point x="614" y="140"/>
      <point x="589" y="172"/>
      <point x="589" y="221" type="curve" smooth="yes"/>
      <point x="589" y="508" type="line"/>
      <point x="400" y="508" type="line"/>
      <point x="400" y="302" type="line" smooth="yes"/>
      <point x="400" y="200"/>
      <point x="374" y="140"/>
      <point x="318" y="140" type="curve" smooth="yes"/>
      <point x="276" y="140"/>
      <point x="252" y="172"/>
      <point x="252" y="221" type="curve" smooth="yes"/>
      <point x="252" y="508" type="line"/>
      <point x="64" y="508" type="line"/>
      <point x="64" y="178" type="line" smooth="yes"/>
      <point x="64" y="59"/>
      <point x="131" y="-9"/>
    </contour>
  </outline>
</glyph>
<glyph name="uni0564" format="2">
  <advance width="777"/>
  <unicode hex="0564"/>
  <note>
uni0564
</note>
  <outline>
    <contour>
      <point x="397" y="-243" type="line"/>
      <point x="585" y="-243" type="line"/>
      <point x="585" y="0" type="line"/>
      <point x="773" y="0" type="line"/>
      <point x="773" y="140" type="line"/>
      <point x="585" y="140" type="line"/>
      <point x="585" y="336" type="line" smooth="yes"/>
      <point x="585" y="451"/>
      <point x="516" y="518"/>
      <point x="389" y="518" type="curve" smooth="yes"/>
      <point x="327" y="518"/>
      <point x="276" y="499"/>
      <point x="246" y="459" type="curve"/>
      <point x="236" y="459" type="line"/>
      <point x="214" y="508" type="line"/>
      <point x="66" y="508" type="line"/>
      <point x="66" y="0" type="line"/>
      <point x="254" y="0" type="line"/>
      <point x="254" y="216" type="line" smooth="yes"/>
      <point x="254" y="314"/>
      <point x="278" y="369"/>
      <point x="335" y="369" type="curve" smooth="yes"/>
      <point x="376" y="369"/>
      <point x="397" y="341"/>
      <point x="397" y="295" type="curve" smooth="yes"/>
    </contour>
  </outline>
</glyph>
<glyph name="uni0565" format="2">
  <advance width="653"/>
  <unicode hex="0565"/>
  <note>
uni0565
</note>
  <outline>
    <contour>
      <point x="583" y="292" type="line"/>
      <point x="395" y="292" type="line"/>
      <point x="395" y="260" type="line" smooth="yes"/>
      <point x="395" y="196"/>
      <point x="374" y="139"/>
      <point x="315" y="139" type="curve" smooth="yes"/>
      <point x="274" y="139"/>
      <point x="252" y="168"/>
      <point x="252" y="213" type="curve" smooth="yes"/>
      <point x="252" y="760" type="line"/>
      <point x="64" y="760" type="line"/>
      <point x="64" y="173" type="line" smooth="yes"/>
      <point x="64" y="58"/>
      <point x="134" y="-10"/>
      <point x="261" y="-10" type="curve" smooth="yes"/>
      <point x="325" y="-10"/>
      <point x="374" y="9"/>
      <point x="403" y="49" type="curve"/>
      <point x="413" y="49" type="line"/>
      <point x="436" y="0" type="line"/>
      <point x="583" y="0" type="line"/>
    </contour>
    <contour>
      <point x="153" y="508" type="line"/>
      <point x="153" y="368" type="line"/>
      <point x="596" y="368" type="line"/>
      <point x="596" y="508" type="line"/>
    </contour>
  </outline>
</glyph>
<glyph name="uni0566" format="2">
  <advance width="676"/>
  <unicode hex="0566"/>
  <note>
uni0566
</note>
  <outline>
    <contour>
      <point x="388" y="-243" type="line"/>
      <point x="716" y="-243" type="line"/>
      <point x="716" y="-103" type="line"/>
      <point x="576" y="-103" type="line"/>
      <point x="576" y="508" type="line"/>
      <point x="429" y="508" type="line"/>
      <point x="406" y="457" type="line"/>
      <point x="398" y="457" type="line"/>
      <point x="360" y="502"/>
      <point x="313" y="518"/>
      <point x="256" y="518" type="curve" smooth="yes"/>
      <point x="131" y="518"/>
      <point x="47" y="421"/>
      <point x="47" y="254" type="curve" smooth="yes"/>
      <point x="47" y="100"/>
      <point x="127" y="-8"/>
      <point x="257" y="-8" type="curve" smooth="yes"/>
      <point x="309" y="-8"/>
      <point x="351" y="9"/>
      <point x="385" y="47" type="curve"/>
      <point x="396" y="47" type="line"/>
      <point x="390" y="6"/>
      <point x="388" y="-18"/>
      <point x="388" y="-42" type="curve" smooth="yes"/>
    </contour>
    <contour>
      <point x="313" y="141" type="curve" smooth="yes"/>
      <point x="262" y="141"/>
      <point x="239" y="177"/>
      <point x="239" y="252" type="curve" smooth="yes"/>
      <point x="239" y="325"/>
      <point x="264" y="369"/>
      <point x="305" y="369" type="curve" smooth="yes"/>
      <point x="367" y="369"/>
      <point x="388" y="335"/>
      <point x="388" y="257" type="curve" smooth="yes"/>
      <point x="388" y="250" type="line" smooth="yes"/>
      <point x="388" y="176"/>
      <point x="361" y="141"/>
    </contour>
  </outline>
</glyph>
<glyph name="uni0567" format="2">
  <advance width="528"/>
  <unicode hex="0567"/>
  <note>
uni0567
</note>
  <outline>
    <contour>
      <point x="66" y="0" type="line"/>
      <point x="254" y="0" type="line"/>
      <point x="254" y="760" type="line"/>
      <point x="66" y="760" type="line"/>
    </contour>
    <contour>
      <point x="151" y="508" type="line"/>
      <point x="151" y="368" type="line"/>
      <point x="499" y="368" type="line"/>
      <point x="499" y="508" type="line"/>
    </contour>
    <contour>
      <point x="66" y="0" type="line"/>
      <point x="242" y="0" type="line" smooth="yes"/>
      <point x="299" y="0"/>
      <point x="304" y="-19"/>
      <point x="304" y="-76" type="curve" smooth="yes"/>
      <point x="304" y="-83" type="line"/>
      <point x="492" y="-83" type="line"/>
      <point x="492" y="-42" type="line" smooth="yes"/>
      <point x="492" y="94"/>
      <point x="445" y="140"/>
      <point x="298" y="140" type="curve" smooth="yes"/>
      <point x="66" y="140" type="line"/>
    </contour>
  </outline>
</glyph>
<glyph name="uni0569" format="2">
  <advance width="815"/>
  <unicode hex="0569"/>
  <note>
uni0569
</note>
  <outline>
    <contour>
      <point x="66" y="-243" type="line"/>
      <point x="254" y="-243" type="line"/>
      <point x="254" y="256" type="line" smooth="yes"/>
      <point x="254" y="330"/>
      <point x="318" y="370"/>
      <point x="410" y="370" type="curve"/>
      <point x="430" y="518" type="line"/>
      <point x="366" y="518"/>
      <point x="282" y="496"/>
      <point x="245" y="459" type="curve"/>
      <point x="236" y="459" type="line"/>
      <point x="214" y="508" type="line"/>
      <point x="66" y="508" type="line"/>
    </contour>
    <contour>
      <point x="781" y="153" type="curve"/>
      <point x="820" y="269" type="line"/>
      <point x="723" y="312"/>
      <point x="591" y="327"/>
      <point x="502" y="327" type="curve" smooth="yes"/>
      <point x="360" y="327"/>
      <point x="285" y="246"/>
      <point x="285" y="141" type="curve" smooth="yes"/>
      <point x="285" y="44"/>
      <point x="367" y="-34"/>
      <point x="481" y="-34" type="curve" smooth="yes"/>
      <point x="650" y="-34"/>
      <point x="734" y="73"/>
      <point x="734" y="233" type="curve" smooth="yes"/>
      <point x="734" y="403"/>
      <point x="648" y="518"/>
      <point x="430" y="518" type="curve"/>
      <point x="410" y="370" type="line"/>
      <point x="517" y="370"/>
      <point x="541" y="332"/>
      <point x="541" y="231" type="curve" smooth="yes"/>
      <point x="541" y="134"/>
      <point x="527" y="98"/>
      <point x="481" y="98" type="curve" smooth="yes"/>
      <point x="456" y="98"/>
      <point x="442" y="117"/>
      <point x="442" y="147" type="curve" smooth="yes"/>
      <point x="442" y="179"/>
      <point x="457" y="203"/>
      <point x="502" y="203" type="curve" smooth="yes"/>
      <point x="577" y="203"/>
      <point x="709" y="183"/>
    </contour>
  </outline>
</glyph>
<glyph name="uni056A" format="2">
  <advance width="721"/>
  <unicode hex="056A"/>
  <note>
uni056A
</note>
  <outline>
    <contour>
      <point x="331" y="369" type="curve" smooth="yes"/>
      <point x="455" y="369"/>
      <point x="580" y="334"/>
      <point x="687" y="267" type="curve"/>
      <point x="727" y="407" type="line"/>
      <point x="587" y="485"/>
      <point x="473" y="518"/>
      <point x="331" y="518" type="curve" smooth="yes"/>
      <point x="156" y="518"/>
      <point x="46" y="416"/>
      <point x="46" y="247" type="curve" smooth="yes"/>
      <point x="46" y="102"/>
      <point x="137" y="-10"/>
      <point x="311" y="-10" type="curve" smooth="yes"/>
      <point x="502" y="-10"/>
      <point x="580" y="101"/>
      <point x="580" y="246" type="curve" smooth="yes"/>
      <point x="580" y="760" type="line"/>
      <point x="391" y="760" type="line"/>
      <point x="391" y="249" type="line" smooth="yes"/>
      <point x="391" y="189"/>
      <point x="376" y="139"/>
      <point x="314" y="139" type="curve" smooth="yes"/>
      <point x="263" y="139"/>
      <point x="238" y="183"/>
      <point x="238" y="252" type="curve" smooth="yes"/>
      <point x="238" y="329"/>
      <point x="267" y="369"/>
    </contour>
  </outline>
</glyph>
<glyph name="uni056B" format="2">
  <advance width="649"/>
  <unicode hex="056B"/>
  <note>
uni056B
</note>
  <outline>
    <contour>
      <point x="254" y="760" type="line"/>
      <point x="66" y="760" type="line"/>
      <point x="66" y="-243" type="line"/>
      <point x="254" y="-243" type="line"/>
      <point x="254" y="216" type="line" smooth="yes"/>
      <point x="254" y="314"/>
      <point x="277" y="369"/>
      <point x="335" y="369" type="curve" smooth="yes"/>
      <point x="374" y="369"/>
      <point x="397" y="341"/>
      <point x="397" y="295" type="curve" smooth="yes"/>
      <point x="397" y="0" type="line"/>
      <point x="585" y="0" type="line"/>
      <point x="585" y="336" type="line" smooth="yes"/>
      <point x="585" y="451"/>
      <point x="514" y="518"/>
      <point x="389" y="518" type="curve" smooth="yes"/>
      <point x="326" y="518"/>
      <point x="286" y="499"/>
      <point x="256" y="459" type="curve"/>
      <point x="246" y="459" type="line"/>
      <point x="252" y="491"/>
      <point x="254" y="528"/>
      <point x="254" y="560" type="curve" smooth="yes"/>
    </contour>
  </outline>
</glyph>
<glyph name="uni056C" format="2">
  <advance width="354"/>
  <unicode hex="056C"/>
  <note>
uni056C
</note>
  <outline>
    <contour>
      <point x="66" y="-243" type="line"/>
      <point x="394" y="-243" type="line"/>
      <point x="394" y="-103" type="line"/>
      <point x="254" y="-103" type="line"/>
      <point x="254" y="508" type="line"/>
      <point x="66" y="508" type="line"/>
    </contour>
  </outline>
</glyph>
<glyph name="uni056D" format="2">
  <advance width="997"/>
  <unicode hex="056D"/>
  <note>
uni056D
</note>
  <outline>
    <contour>
      <point x="742" y="508" type="line"/>
      <point x="742" y="292" type="line" smooth="yes"/>
      <point x="742" y="194"/>
      <point x="719" y="139"/>
      <point x="659" y="139" type="curve" smooth="yes"/>
      <point x="617" y="139"/>
      <point x="595" y="168"/>
      <point x="595" y="213" type="curve" smooth="yes"/>
      <point x="595" y="336" type="line" smooth="yes"/>
      <point x="595" y="451"/>
      <point x="522" y="518"/>
      <point x="395" y="518" type="curve" smooth="yes"/>
      <point x="330" y="518"/>
      <point x="287" y="499"/>
      <point x="256" y="459" type="curve"/>
      <point x="246" y="459" type="line"/>
      <point x="252" y="491"/>
      <point x="254" y="528"/>
      <point x="254" y="560" type="curve" smooth="yes"/>
      <point x="254" y="760" type="line"/>
      <point x="66" y="760" type="line"/>
      <point x="66" y="-243" type="line"/>
      <point x="254" y="-243" type="line"/>
      <point x="254" y="216" type="line" smooth="yes"/>
      <point x="254" y="314"/>
      <point x="281" y="369"/>
      <point x="341" y="369" type="curve" smooth="yes"/>
      <point x="383" y="369"/>
      <point x="406" y="341"/>
      <point x="406" y="295" type="curve" smooth="yes"/>
      <point x="406" y="173" type="line" smooth="yes"/>
      <point x="406" y="58"/>
      <point x="477" y="-10"/>
      <point x="605" y="-10" type="curve" smooth="yes"/>
      <point x="670" y="-10"/>
      <point x="721" y="9"/>
      <point x="750" y="49" type="curve"/>
      <point x="760" y="49" type="line"/>
      <point x="783" y="0" type="line"/>
      <point x="930" y="0" type="line"/>
      <point x="930" y="508" type="line"/>
    </contour>
  </outline>
</glyph>
<glyph name="uni056E" format="2">
  <advance width="658"/>
  <unicode hex="056E"/>
  <note>
uni056E
</note>
  <outline>
    <contour>
      <point x="348" y="360" type="curve" smooth="yes"/>
      <point x="638" y="360" type="line"/>
      <point x="638" y="500" type="line"/>
      <point x="306" y="500" type="line" smooth="yes"/>
      <point x="154" y="500"/>
      <point x="46" y="392"/>
      <point x="46" y="241" type="curve" smooth="yes"/>
      <point x="46" y="97"/>
      <point x="139" y="-7"/>
      <point x="316" y="-7" type="curve" smooth="yes"/>
      <point x="484" y="-7"/>
      <point x="578" y="93"/>
      <point x="578" y="236" type="curve" smooth="yes"/>
      <point x="578" y="413"/>
      <point x="505" y="560"/>
      <point x="350" y="713" type="curve"/>
      <point x="211" y="618" type="line"/>
      <point x="321" y="519"/>
      <point x="386" y="426"/>
      <point x="386" y="257" type="curve" smooth="yes"/>
      <point x="386" y="192"/>
      <point x="361" y="143"/>
      <point x="317" y="143" type="curve" smooth="yes"/>
      <point x="269" y="143"/>
      <point x="238" y="171"/>
      <point x="238" y="234" type="curve" smooth="yes"/>
      <point x="238" y="319"/>
      <point x="280" y="360"/>
    </contour>
    <contour>
      <point x="211" y="618" type="line"/>
      <point x="340" y="517" type="line"/>
      <point x="516" y="645" type="line"/>
      <point x="422" y="770" type="line"/>
    </contour>
  </outline>
</glyph>
<glyph name="uni0570" format="2">
  <advance width="622"/>
  <unicode hex="0570"/>
  <note>
uni0570
</note>
  <outline>
    <contour>
      <point x="379" y="0" type="line"/>
      <point x="567" y="0" type="line"/>
      <point x="567" y="115" type="line" smooth="yes"/>
      <point x="567" y="282"/>
      <point x="486" y="356"/>
      <point x="358" y="356" type="curve" smooth="yes"/>
      <point x="305" y="356"/>
      <point x="260" y="330"/>
      <point x="241" y="302" type="curve"/>
      <point x="235" y="303" type="line"/>
      <point x="235" y="562"/>
      <point x="312" y="611"/>
      <point x="383" y="611" type="curve" smooth="yes"/>
      <point x="419" y="611"/>
      <point x="449" y="593"/>
      <point x="479" y="557" type="curve"/>
      <point x="590" y="678" type="line"/>
      <point x="529" y="737"/>
      <point x="464" y="761"/>
      <point x="383" y="761" type="curve" smooth="yes"/>
      <point x="195" y="761"/>
      <point x="47" y="628"/>
      <point x="47" y="270" type="curve" smooth="yes"/>
      <point x="47" y="186" type="line"/>
      <point x="237" y="156" type="line"/>
      <point x="255" y="206"/>
      <point x="280" y="206"/>
      <point x="307" y="206" type="curve" smooth="yes"/>
      <point x="354" y="206"/>
      <point x="379" y="175"/>
      <point x="379" y="85" type="curve" smooth="yes"/>
    </contour>
  </outline>
</glyph>
<glyph name="uni0571" format="2">
  <advance width="718"/>
  <unicode hex="0571"/>
  <note>
uni0571
</note>
  <outline>
    <contour>
      <point x="211" y="760" type="curve"/>
      <point x="53" y="760" type="line"/>
      <point x="53" y="621"/>
      <point x="69" y="596"/>
      <point x="223" y="580" type="curve" smooth="yes"/>
      <point x="350" y="567"/>
      <point x="360" y="564"/>
      <point x="360" y="550" type="curve" smooth="yes"/>
      <point x="360" y="534"/>
      <point x="338" y="512"/>
      <point x="243" y="454" type="curve" smooth="yes"/>
      <point x="82" y="356"/>
      <point x="38" y="290"/>
      <point x="38" y="182" type="curve" smooth="yes"/>
      <point x="38" y="54"/>
      <point x="128" y="-10"/>
      <point x="247" y="-10" type="curve" smooth="yes"/>
      <point x="343" y="-10"/>
      <point x="409" y="24"/>
      <point x="431" y="50" type="curve"/>
      <point x="435" y="50" type="line"/>
      <point x="435" y="185" type="line"/>
      <point x="411" y="159"/>
      <point x="360" y="139"/>
      <point x="302" y="139" type="curve" smooth="yes"/>
      <point x="250" y="139"/>
      <point x="228" y="152"/>
      <point x="228" y="199" type="curve" smooth="yes"/>
      <point x="228" y="249"/>
      <point x="282" y="290"/>
      <point x="355" y="340" type="curve" smooth="yes"/>
      <point x="568" y="485"/>
      <point x="580" y="525"/>
      <point x="580" y="587" type="curve" smooth="yes"/>
      <point x="580" y="637"/>
      <point x="558" y="691"/>
      <point x="348" y="709" type="curve" smooth="yes"/>
      <point x="213" y="721"/>
      <point x="211" y="734"/>
    </contour>
    <contour>
      <point x="303" y="466" type="line"/>
      <point x="450" y="0" type="line"/>
      <point x="631" y="53" type="line"/>
      <point x="484" y="518" type="line"/>
    </contour>
    <contour>
      <point x="451" y="0" type="line"/>
      <point x="706" y="0" type="line"/>
      <point x="706" y="140" type="line"/>
      <point x="588" y="140" type="line"/>
    </contour>
  </outline>
</glyph>
<glyph name="uni0573" format="2">
  <advance width="649"/>
  <unicode hex="0573"/>
  <note>
uni0573
</note>
  <outline>
    <contour>
      <point x="598" y="177" type="line" smooth="yes"/>
      <point x="598" y="443"/>
      <point x="510" y="508"/>
      <point x="3" y="508" type="curve"/>
      <point x="3" y="368" type="line"/>
      <point x="393" y="368"/>
      <point x="410" y="331"/>
      <point x="410" y="206" type="curve" smooth="yes"/>
      <point x="410" y="166"/>
      <point x="388" y="139"/>
      <point x="341" y="139" type="curve" smooth="yes"/>
      <point x="294" y="139"/>
      <point x="272" y="162"/>
      <point x="272" y="237" type="curve" smooth="yes"/>
      <point x="272" y="495"/>
      <point x="363" y="611"/>
      <point x="427" y="611" type="curve" smooth="yes"/>
      <point x="455" y="611"/>
      <point x="480" y="600"/>
      <point x="504" y="575" type="curve"/>
      <point x="608" y="701" type="line"/>
      <point x="554" y="743"/>
      <point x="496" y="761"/>
      <point x="427" y="761" type="curve" smooth="yes"/>
      <point x="263" y="761"/>
      <point x="82" y="589"/>
      <point x="82" y="237" type="curve" smooth="yes"/>
      <point x="82" y="77"/>
      <point x="154" y="-10"/>
      <point x="272" y="-10" type="curve" smooth="yes"/>
      <point x="339" y="-10"/>
      <point x="390" y="13"/>
      <point x="418" y="55" type="curve"/>
      <point x="428" y="55" type="line"/>
      <point x="450" y="0" type="line"/>
      <point x="598" y="0" type="line"/>
    </contour>
  </outline>
</glyph>
<glyph name="uni0574" format="2">
  <advance width="690"/>
  <unicode hex="0574"/>
  <note>
uni0574
</note>
  <outline>
    <contour>
      <point x="583" y="314" type="line" smooth="yes"/>
      <point x="583" y="397"/>
      <point x="576" y="443"/>
      <point x="525" y="502" type="curve" smooth="yes"/>
      <point x="511" y="519"/>
      <point x="480" y="553"/>
      <point x="480" y="582" type="curve" smooth="yes"/>
      <point x="480" y="599"/>
      <point x="493" y="612"/>
      <point x="511" y="612" type="curve" smooth="yes"/>
      <point x="537" y="612"/>
      <point x="551" y="600"/>
      <point x="551" y="569" type="curve"/>
      <point x="727" y="569" type="line"/>
      <point x="727" y="693"/>
      <point x="640" y="762"/>
      <point x="523" y="762" type="curve" smooth="yes"/>
      <point x="357" y="762"/>
      <point x="290" y="670"/>
      <point x="290" y="570" type="curve" smooth="yes"/>
      <point x="290" y="548"/>
      <point x="308" y="495"/>
      <point x="341" y="452" type="curve" smooth="yes"/>
      <point x="385" y="395"/>
      <point x="395" y="359"/>
      <point x="395" y="316" type="curve" smooth="yes"/>
      <point x="395" y="292" type="line" smooth="yes"/>
      <point x="395" y="195"/>
      <point x="374" y="139"/>
      <point x="315" y="139" type="curve" smooth="yes"/>
      <point x="274" y="139"/>
      <point x="252" y="168"/>
      <point x="252" y="213" type="curve" smooth="yes"/>
      <point x="252" y="508" type="line"/>
      <point x="64" y="508" type="line"/>
      <point x="64" y="173" type="line" smooth="yes"/>
      <point x="64" y="58"/>
      <point x="134" y="-10"/>
      <point x="261" y="-10" type="curve" smooth="yes"/>
      <point x="325" y="-10"/>
      <point x="374" y="9"/>
      <point x="403" y="49" type="curve"/>
      <point x="413" y="49" type="line"/>
      <point x="436" y="0" type="line"/>
      <point x="583" y="0" type="line"/>
    </contour>
  </outline>
</glyph>
<glyph name="uni0575" format="2">
  <advance width="344"/>
  <unicode hex="0575"/>
  <note>
uni0575
</note>
  <outline>
    <contour>
      <point x="76" y="183" type="line"/>
      <point x="264" y="183" type="line"/>
      <point x="264" y="508" type="line"/>
      <point x="76" y="508" type="line"/>
    </contour>
    <contour>
      <point x="76" y="183" type="line"/>
      <point x="76" y="120"/>
      <point x="79" y="77"/>
      <point x="95" y="39" type="curve" smooth="yes"/>
      <point x="115" y="-9"/>
      <point x="119" y="-37"/>
      <point x="119" y="-67" type="curve" smooth="yes"/>
      <point x="119" y="-108"/>
      <point x="83" y="-126"/>
      <point x="48" y="-126" type="curve" smooth="yes"/>
      <point x="26" y="-126" type="line"/>
      <point x="26" y="-266" type="line"/>
      <point x="85" y="-266" type="line" smooth="yes"/>
      <point x="219" y="-266"/>
      <point x="307" y="-189"/>
      <point x="307" y="-54" type="curve" smooth="yes"/>
      <point x="307" y="-27"/>
      <point x="300" y="7"/>
      <point x="286" y="51" type="curve" smooth="yes"/>
      <point x="272" y="94"/>
      <point x="264" y="131"/>
      <point x="264" y="183" type="curve"/>
    </contour>
  </outline>
</glyph>
<glyph name="uni0576" format="2">
  <advance width="648"/>
  <unicode hex="0576"/>
  <note>
uni0576
</note>
  <outline>
    <contour>
      <point x="116" y="480" type="line"/>
      <point x="100" y="439"/>
      <point x="42" y="322"/>
      <point x="42" y="218" type="curve" smooth="yes"/>
      <point x="42" y="76"/>
      <point x="125" y="-10"/>
      <point x="258" y="-10" type="curve" smooth="yes"/>
      <point x="322" y="-10"/>
      <point x="371" y="9"/>
      <point x="400" y="49" type="curve"/>
      <point x="410" y="49" type="line"/>
      <point x="433" y="0" type="line"/>
      <point x="581" y="0" type="line"/>
      <point x="581" y="508" type="line"/>
      <point x="392" y="508" type="line"/>
      <point x="392" y="292" type="line" smooth="yes"/>
      <point x="392" y="194"/>
      <point x="366" y="139"/>
      <point x="307" y="139" type="curve" smooth="yes"/>
      <point x="261" y="139"/>
      <point x="234" y="169"/>
      <point x="234" y="255" type="curve" smooth="yes"/>
      <point x="234" y="354"/>
      <point x="270" y="482"/>
      <point x="288" y="546" type="curve"/>
      <point x="288" y="563" type="line"/>
    </contour>
    <contour>
      <point x="288" y="563" type="line"/>
      <point x="278" y="567" type="line" smooth="yes"/>
      <point x="231" y="586"/>
      <point x="225" y="596"/>
      <point x="225" y="627" type="curve" smooth="yes"/>
      <point x="225" y="644"/>
      <point x="230" y="662"/>
      <point x="234" y="675" type="curve" smooth="yes"/>
      <point x="245" y="708" type="line"/>
      <point x="85" y="760" type="line"/>
      <point x="59" y="688" type="line" smooth="yes"/>
      <point x="49" y="661"/>
      <point x="40" y="631"/>
      <point x="40" y="591" type="curve" smooth="yes"/>
      <point x="40" y="541"/>
      <point x="64" y="502"/>
      <point x="113" y="480" type="curve" smooth="yes"/>
      <point x="122" y="476" type="line"/>
    </contour>
  </outline>
</glyph>
<glyph name="uni0577" format="2">
  <advance width="472"/>
  <unicode hex="0577"/>
  <note>
uni0577
</note>
  <outline>
    <contour>
      <point x="453" y="-243" type="line"/>
      <point x="453" y="-103" type="line"/>
      <point x="269" y="-103" type="line" smooth="yes"/>
      <point x="256" y="-103"/>
      <point x="253" y="-99"/>
      <point x="253" y="-91" type="curve" smooth="yes"/>
      <point x="253" y="-81"/>
      <point x="262" y="-65"/>
      <point x="269" y="-57" type="curve" smooth="yes"/>
      <point x="351" y="47" type="line" smooth="yes"/>
      <point x="407" y="118"/>
      <point x="450" y="190"/>
      <point x="450" y="288" type="curve" smooth="yes"/>
      <point x="450" y="431"/>
      <point x="355" y="518"/>
      <point x="201" y="518" type="curve" smooth="yes"/>
      <point x="116" y="518"/>
      <point x="51" y="501"/>
      <point x="0" y="478" type="curve"/>
      <point x="39" y="336" type="line"/>
      <point x="81" y="356"/>
      <point x="135" y="368"/>
      <point x="175" y="368" type="curve" smooth="yes"/>
      <point x="232" y="368"/>
      <point x="258" y="340"/>
      <point x="258" y="273" type="curve" smooth="yes"/>
      <point x="258" y="228"/>
      <point x="232" y="162"/>
      <point x="196" y="114" type="curve" smooth="yes"/>
      <point x="54" y="-75" type="line" smooth="yes"/>
      <point x="21" y="-119"/>
      <point x="11" y="-144"/>
      <point x="11" y="-176" type="curve" smooth="yes"/>
      <point x="11" y="-222"/>
      <point x="32" y="-243"/>
      <point x="88" y="-243" type="curve" smooth="yes"/>
    </contour>
  </outline>
</glyph>
<glyph name="uni0578" format="2">
  <advance width="649"/>
  <unicode hex="0578"/>
  <note>
uni0578
</note>
  <anchor x="324" y="492" name="top"/>
  <outline>
    <contour>
      <point x="66" y="0" type="line"/>
      <point x="254" y="0" type="line"/>
      <point x="254" y="216" type="line" smooth="yes"/>
      <point x="254" y="314"/>
      <point x="276" y="369"/>
      <point x="335" y="369" type="curve" smooth="yes"/>
      <point x="376" y="369"/>
      <point x="397" y="341"/>
      <point x="397" y="295" type="curve" smooth="yes"/>
      <point x="397" y="0" type="line"/>
      <point x="585" y="0" type="line"/>
      <point x="585" y="336" type="line" smooth="yes"/>
      <point x="585" y="451"/>
      <point x="516" y="518"/>
      <point x="389" y="518" type="curve" smooth="yes"/>
      <point x="325" y="518"/>
      <point x="276" y="499"/>
      <point x="246" y="459" type="curve"/>
      <point x="236" y="459" type="line"/>
      <point x="214" y="508" type="line"/>
      <point x="66" y="508" type="line"/>
    </contour>
  </outline>
</glyph>
<glyph name="uni0579" format="2">
  <advance width="426"/>
  <unicode hex="0579"/>
  <note>
uni0579
</note>
  <outline>
    <contour>
      <point x="-11" y="-176" type="curve" smooth="yes"/>
      <point x="-11" y="-222"/>
      <point x="10" y="-243"/>
      <point x="66" y="-243" type="curve" smooth="yes"/>
      <point x="401" y="-243" type="line"/>
      <point x="401" y="-103" type="line"/>
      <point x="240" y="-103" type="line" smooth="yes"/>
      <point x="228" y="-103"/>
      <point x="218" y="-99"/>
      <point x="218" y="-91" type="curve" smooth="yes"/>
      <point x="218" y="-81"/>
      <point x="224" y="-64"/>
      <point x="228" y="-55" type="curve" smooth="yes"/>
      <point x="413" y="341" type="line"/>
      <point x="253" y="415" type="line"/>
      <point x="18" y="-79" type="line" smooth="yes"/>
      <point x="-6" y="-129"/>
      <point x="-11" y="-144"/>
    </contour>
    <contour>
      <point x="413" y="341" type="line"/>
      <point x="292" y="402" type="line" smooth="yes"/>
      <point x="267" y="414"/>
      <point x="244" y="433"/>
      <point x="244" y="457" type="curve" smooth="yes"/>
      <point x="244" y="484"/>
      <point x="253" y="500"/>
      <point x="258" y="508" type="curve"/>
      <point x="78" y="508" type="line"/>
      <point x="64" y="488"/>
      <point x="55" y="457"/>
      <point x="55" y="422" type="curve" smooth="yes"/>
      <point x="55" y="384"/>
      <point x="73" y="336"/>
      <point x="119" y="309" type="curve" smooth="yes"/>
      <point x="186" y="270" type="line"/>
    </contour>
  </outline>
</glyph>
<glyph name="uni057A" format="2">
  <advance width="991"/>
  <unicode hex="057A"/>
  <note>
uni057A
</note>
  <outline>
    <contour>
      <point x="736" y="-243" type="line"/>
      <point x="925" y="-243" type="line"/>
      <point x="925" y="508" type="line"/>
      <point x="736" y="508" type="line"/>
      <point x="736" y="302" type="line" smooth="yes"/>
      <point x="736" y="200"/>
      <point x="713" y="140"/>
      <point x="657" y="140" type="curve" smooth="yes"/>
      <point x="614" y="140"/>
      <point x="589" y="172"/>
      <point x="589" y="221" type="curve" smooth="yes"/>
      <point x="589" y="508" type="line"/>
      <point x="400" y="508" type="line"/>
      <point x="400" y="302" type="line" smooth="yes"/>
      <point x="400" y="200"/>
      <point x="374" y="140"/>
      <point x="318" y="140" type="curve" smooth="yes"/>
      <point x="276" y="140"/>
      <point x="252" y="172"/>
      <point x="252" y="221" type="curve" smooth="yes"/>
      <point x="252" y="508" type="line"/>
      <point x="64" y="508" type="line"/>
      <point x="64" y="178" type="line" smooth="yes"/>
      <point x="64" y="59"/>
      <point x="131" y="-9"/>
      <point x="264" y="-9" type="curve" smooth="yes"/>
      <point x="325" y="-9"/>
      <point x="393" y="22"/>
      <point x="422" y="60" type="curve"/>
      <point x="432" y="60" type="line"/>
      <point x="467" y="14"/>
      <point x="523" y="-9"/>
      <point x="601" y="-9" type="curve" smooth="yes"/>
      <point x="665" y="-9"/>
      <point x="710" y="10"/>
      <point x="740" y="52" type="curve"/>
      <point x="750" y="52" type="line"/>
      <point x="740" y="16"/>
      <point x="736" y="-7"/>
      <point x="736" y="-42" type="curve" smooth="yes"/>
    </contour>
  </outline>
</glyph>
<glyph name="uni057B" format="2">
  <advance width="542"/>
  <unicode hex="057B"/>
  <note>
uni057B
</note>
  <outline>
    <contour>
      <point x="313" y="-103" type="line" smooth="yes"/>
      <point x="301" y="-103"/>
      <point x="298" y="-99"/>
      <point x="298" y="-91" type="curve" smooth="yes"/>
      <point x="298" y="-81"/>
      <point x="302" y="-71"/>
      <point x="313" y="-57" type="curve" smooth="yes"/>
      <point x="424" y="83" type="line" smooth="yes"/>
      <point x="500" y="179"/>
      <point x="523" y="240"/>
      <point x="523" y="298" type="curve" smooth="yes"/>
      <point x="523" y="431"/>
      <point x="433" y="518"/>
      <point x="274" y="518" type="curve" smooth="yes"/>
      <point x="124" y="518"/>
      <point x="29" y="428"/>
      <point x="29" y="306" type="curve" smooth="yes"/>
      <point x="29" y="226"/>
      <point x="51" y="177"/>
      <point x="96" y="135" type="curve" smooth="yes"/>
      <point x="155" y="80"/>
      <point x="177" y="52"/>
      <point x="180" y="15" type="curve"/>
      <point x="283" y="128" type="line"/>
      <point x="280" y="166"/>
      <point x="263" y="191"/>
      <point x="245" y="213" type="curve" smooth="yes"/>
      <point x="224" y="239"/>
      <point x="217" y="270"/>
      <point x="217" y="304" type="curve" smooth="yes"/>
      <point x="217" y="343"/>
      <point x="238" y="368"/>
      <point x="274" y="368" type="curve" smooth="yes"/>
      <point x="309" y="368"/>
      <point x="331" y="340"/>
      <point x="331" y="300" type="curve" smooth="yes"/>
      <point x="331" y="249"/>
      <point x="313" y="213"/>
      <point x="243" y="120" type="curve" smooth="yes"/>
      <point x="95" y="-75" type="line" smooth="yes"/>
      <point x="61" y="-120"/>
      <point x="51" y="-144"/>
      <point x="51" y="-176" type="curve" smooth="yes"/>
      <point x="51" y="-222"/>
      <point x="73" y="-243"/>
      <point x="129" y="-243" type="curve" smooth="yes"/>
      <point x="495" y="-243" type="line"/>
      <point x="495" y="-103" type="line"/>
    </contour>
  </outline>
</glyph>
<glyph name="uni057C" format="2">
  <advance width="708"/>
  <unicode hex="057C"/>
  <note>
uni057C
</note>
  <outline>
    <contour>
      <point x="544" y="140" type="line"/>
      <point x="574" y="170"/>
      <point x="605" y="242"/>
      <point x="605" y="325" type="curve" smooth="yes"/>
      <point x="605" y="438"/>
      <point x="522" y="518"/>
      <point x="389" y="518" type="curve" smooth="yes"/>
      <point x="325" y="518"/>
      <point x="276" y="499"/>
      <point x="246" y="459" type="curve"/>
      <point x="236" y="459" type="line"/>
      <point x="214" y="508" type="line"/>
      <point x="66" y="508" type="line"/>
      <point x="66" y="0" type="line"/>
      <point x="254" y="0" type="line"/>
      <point x="254" y="216" type="line" smooth="yes"/>
      <point x="254" y="314"/>
      <point x="281" y="369"/>
      <point x="340" y="369" type="curve" smooth="yes"/>
      <point x="385" y="369"/>
      <point x="413" y="339"/>
      <point x="413" y="286" type="curve" smooth="yes"/>
      <point x="413" y="221"/>
      <point x="395" y="164"/>
      <point x="351" y="128" type="curve"/>
      <point x="351" y="0" type="line"/>
      <point x="698" y="0" type="line"/>
      <point x="698" y="140" type="line"/>
    </contour>
  </outline>
</glyph>
<glyph name="uni057D" format="2">
  <advance width="650"/>
  <unicode hex="057D"/>
  <note>
uni057D
</note>
  <outline>
    <contour>
      <point x="583" y="508" type="line"/>
      <point x="395" y="508" type="line"/>
      <point x="395" y="292" type="line" smooth="yes"/>
      <point x="395" y="194"/>
      <point x="374" y="139"/>
      <point x="315" y="139" type="curve" smooth="yes"/>
      <point x="274" y="139"/>
      <point x="252" y="168"/>
      <point x="252" y="213" type="curve" smooth="yes"/>
      <point x="252" y="508" type="line"/>
      <point x="64" y="508" type="line"/>
      <point x="64" y="173" type="line" smooth="yes"/>
      <point x="64" y="58"/>
      <point x="134" y="-10"/>
      <point x="261" y="-10" type="curve" smooth="yes"/>
      <point x="325" y="-10"/>
      <point x="374" y="9"/>
      <point x="403" y="49" type="curve"/>
      <point x="413" y="49" type="line"/>
      <point x="436" y="0" type="line"/>
      <point x="583" y="0" type="line"/>
    </contour>
  </outline>
</glyph>
<glyph name="uni057E" format="2">
  <advance width="683"/>
  <unicode hex="057E"/>
  <note>
uni057E
</note>
  <outline>
    <contour>
      <point x="583" y="-103" type="line"/>
      <point x="583" y="760" type="line"/>
      <point x="395" y="760" type="line"/>
      <point x="395" y="292" type="line" smooth="yes"/>
      <point x="395" y="194"/>
      <point x="374" y="139"/>
      <point x="315" y="139" type="curve" smooth="yes"/>
      <point x="274" y="139"/>
      <point x="252" y="168"/>
      <point x="252" y="213" type="curve" smooth="yes"/>
      <point x="252" y="508" type="line"/>
      <point x="64" y="508" type="line"/>
      <point x="64" y="173" type="line" smooth="yes"/>
      <point x="64" y="58"/>
      <point x="134" y="-10"/>
      <point x="261" y="-10" type="curve" smooth="yes"/>
      <point x="325" y="-10"/>
      <point x="367" y="9"/>
      <point x="397" y="49" type="curve"/>
      <point x="406" y="49" type="line"/>
      <point x="399" y="33"/>
      <point x="395" y="16"/>
      <point x="395" y="1" type="curve" smooth="yes"/>
      <point x="395" y="-243" type="line"/>
      <point x="723" y="-243" type="line"/>
      <point x="723" y="-103" type="line"/>
    </contour>
  </outline>
</glyph>
<glyph name="uni0581" format="2">
  <advance width="641"/>
  <unicode hex="0581"/>
  <note>
uni0581
</note>
  <outline>
    <contour>
      <point x="266" y="-253" type="curve" smooth="yes"/>
      <point x="479" y="-253"/>
      <point x="576" y="-178"/>
      <point x="576" y="-7" type="curve" smooth="yes"/>
      <point x="576" y="508" type="line"/>
      <point x="428" y="508" type="line"/>
      <point x="406" y="453" type="line"/>
      <point x="398" y="453" type="line"/>
      <point x="362" y="499"/>
      <point x="312" y="518"/>
      <point x="256" y="518" type="curve" smooth="yes"/>
      <point x="127" y="518"/>
      <point x="46" y="414"/>
      <point x="46" y="255" type="curve" smooth="yes"/>
      <point x="46" y="106"/>
      <point x="123" y="-9"/>
      <point x="256" y="-9" type="curve" smooth="yes"/>
      <point x="312" y="-9"/>
      <point x="351" y="10"/>
      <point x="385" y="47" type="curve"/>
      <point x="396" y="47" type="line"/>
      <point x="390" y="18"/>
      <point x="387" y="-15"/>
      <point x="387" y="-46" type="curve" smooth="yes"/>
      <point x="387" y="-57" type="line" smooth="yes"/>
      <point x="387" y="-95"/>
      <point x="348" y="-112"/>
      <point x="271" y="-112" type="curve" smooth="yes"/>
      <point x="207" y="-112"/>
      <point x="152" y="-103"/>
      <point x="104" y="-84" type="curve"/>
      <point x="104" y="-225" type="line"/>
      <point x="163" y="-245"/>
      <point x="217" y="-253"/>
    </contour>
    <contour>
      <point x="312" y="140" type="curve" smooth="yes"/>
      <point x="258" y="140"/>
      <point x="238" y="182"/>
      <point x="238" y="254" type="curve" smooth="yes"/>
      <point x="238" y="324"/>
      <point x="265" y="369"/>
      <point x="304" y="369" type="curve" smooth="yes"/>
      <point x="362" y="369"/>
      <point x="387" y="339"/>
      <point x="387" y="258" type="curve" smooth="yes"/>
      <point x="387" y="249" type="line" smooth="yes"/>
      <point x="387" y="160"/>
      <point x="353" y="140"/>
    </contour>
  </outline>
</glyph>
<glyph name="uni0582" format="2">
  <advance width="449"/>
  <unicode hex="0582"/>
  <note>
uni0582
</note>
  <outline>
    <contour>
      <point x="66" y="0" type="line"/>
      <point x="432" y="0" type="line"/>
      <point x="432" y="140" type="line"/>
      <point x="254" y="140" type="line"/>
      <point x="254" y="508" type="line"/>
      <point x="66" y="508" type="line"/>
    </contour>
  </outline>
</glyph>
<glyph name="uni0583" format="2">
  <advance width="979"/>
  <unicode hex="0583"/>
  <note>
uni0583
</note>
  <outline>
    <contour>
      <point x="718" y="518" type="curve" smooth="yes"/>
      <point x="654" y="518"/>
      <point x="614" y="499"/>
      <point x="584" y="459" type="curve"/>
      <point x="575" y="459" type="line"/>
      <point x="581" y="489"/>
      <point x="583" y="521"/>
      <point x="583" y="549" type="curve" smooth="yes"/>
      <point x="583" y="760" type="line"/>
      <point x="395" y="760" type="line"/>
      <point x="395" y="292" type="line" smooth="yes"/>
      <point x="395" y="194"/>
      <point x="374" y="139"/>
      <point x="315" y="139" type="curve" smooth="yes"/>
      <point x="274" y="139"/>
      <point x="252" y="168"/>
      <point x="252" y="213" type="curve" smooth="yes"/>
      <point x="252" y="508" type="line"/>
      <point x="64" y="508" type="line"/>
      <point x="64" y="173" type="line" smooth="yes"/>
      <point x="64" y="58"/>
      <point x="134" y="-10"/>
      <point x="261" y="-10" type="curve" smooth="yes"/>
      <point x="325" y="-10"/>
      <point x="368" y="8"/>
      <point x="397" y="49" type="curve"/>
      <point x="406" y="49" type="line"/>
      <point x="398" y="33"/>
      <point x="395" y="17"/>
      <point x="395" y="1" type="curve" smooth="yes"/>
      <point x="395" y="-243" type="line"/>
      <point x="583" y="-243" type="line"/>
      <point x="583" y="216" type="line" smooth="yes"/>
      <point x="583" y="314"/>
      <point x="605" y="369"/>
      <point x="664" y="369" type="curve" smooth="yes"/>
      <point x="705" y="369"/>
      <point x="726" y="341"/>
      <point x="726" y="295" type="curve" smooth="yes"/>
      <point x="726" y="0" type="line"/>
      <point x="915" y="0" type="line"/>
      <point x="915" y="336" type="line" smooth="yes"/>
      <point x="915" y="451"/>
      <point x="845" y="518"/>
    </contour>
  </outline>
</glyph>
<glyph name="uni0584" format="2">
  <advance width="658"/>
  <unicode hex="0584"/>
  <note>
uni0584
</note>
  <outline>
    <contour>
      <point x="80" y="-243" type="line"/>
      <point x="268" y="-243" type="line"/>
      <point x="268" y="-178" type="line"/>
      <point x="610" y="-178" type="line"/>
      <point x="610" y="-38" type="line"/>
      <point x="268" y="-38" type="line"/>
      <point x="268" y="-36" type="line" smooth="yes"/>
      <point x="268" y="-15"/>
      <point x="266" y="13"/>
      <point x="260" y="51" type="curve"/>
      <point x="271" y="51" type="line"/>
      <point x="305" y="10"/>
      <point x="350" y="-9"/>
      <point x="404" y="-9" type="curve" smooth="yes"/>
      <point x="533" y="-9"/>
      <point x="611" y="95"/>
      <point x="611" y="251" type="curve" smooth="yes"/>
      <point x="611" y="416"/>
      <point x="528" y="518"/>
      <point x="397" y="518" type="curve" smooth="yes"/>
      <point x="344" y="518"/>
      <point x="297" y="505"/>
      <point x="259" y="463" type="curve"/>
      <point x="251" y="463" type="line"/>
      <point x="227" y="508" type="line"/>
      <point x="80" y="508" type="line"/>
      <point x="80" y="-38" type="line"/>
      <point x="10" y="-38" type="line"/>
      <point x="10" y="-178" type="line"/>
      <point x="80" y="-178" type="line"/>
    </contour>
    <contour>
      <point x="350" y="140" type="curve" smooth="yes"/>
      <point x="294" y="140"/>
      <point x="269" y="181"/>
      <point x="269" y="251" type="curve" smooth="yes"/>
      <point x="269" y="260" type="line" smooth="yes"/>
      <point x="269" y="338"/>
      <point x="289" y="369"/>
      <point x="349" y="369" type="curve" smooth="yes"/>
      <point x="392" y="369"/>
      <point x="420" y="326"/>
      <point x="420" y="250" type="curve" smooth="yes"/>
      <point x="420" y="174"/>
      <point x="400" y="140"/>
    </contour>
  </outline>
</glyph>
<glyph name="uni0585" format="2">
  <advance width="621"/>
  <unicode hex="0585"/>
  <note>
uni0585
</note>
  <anchor x="310" y="492" name="top"/>
  <outline>
    <contour>
      <point x="315" y="-10" type="curve" smooth="yes"/>
      <point x="466" y="-10"/>
      <point x="575" y="94"/>
      <point x="575" y="253" type="curve" smooth="yes"/>
      <point x="575" y="412"/>
      <point x="461" y="518"/>
      <point x="310" y="518" type="curve" smooth="yes"/>
      <point x="155" y="518"/>
      <point x="46" y="407"/>
      <point x="46" y="253" type="curve" smooth="yes"/>
      <point x="46" y="96"/>
      <point x="160" y="-10"/>
    </contour>
    <contour>
      <point x="312" y="141" type="curve" smooth="yes"/>
      <point x="262" y="141"/>
      <point x="238" y="180"/>
      <point x="238" y="255" type="curve" smooth="yes"/>
      <point x="238" y="331"/>
      <point x="258" y="368"/>
      <point x="309" y="368" type="curve" smooth="yes"/>
      <point x="357" y="368"/>
      <point x="383" y="336"/>
      <point x="383" y="255" type="curve" smooth="yes"/>
      <point x="383" y="179"/>
      <point x="360" y="141"/>
    </contour>
  </outline>
</glyph>
<glyph name="uni0586" format="2">
  <advance width="844"/>
  <unicode hex="0586"/>
  <note>
uni0586
</note>
  <outline>
    <contour>
      <point x="500" y="421" type="curve"/>
      <point x="500" y="714" type="line"/>
      <point x="399" y="714" type="line" smooth="yes"/>
      <point x="168" y="714"/>
      <point x="28" y="641"/>
      <point x="28" y="497" type="curve" smooth="yes"/>
      <point x="28" y="367"/>
      <point x="132" y="309"/>
      <point x="318" y="294" type="curve"/>
      <point x="318" y="131" type="line"/>
      <point x="256" y="133"/>
      <point x="137" y="170"/>
      <point x="24" y="215" type="curve"/>
      <point x="24" y="60" type="line"/>
      <point x="111" y="25"/>
      <point x="231" y="0"/>
      <point x="318" y="-9" type="curve"/>
      <point x="318" y="-243" type="line"/>
      <point x="500" y="-243" type="line"/>
      <point x="500" y="-9" type="line"/>
      <point x="699" y="1"/>
      <point x="817" y="83"/>
      <point x="817" y="219" type="curve" smooth="yes"/>
      <point x="817" y="348"/>
      <point x="720" y="417"/>
    </contour>
    <contour>
      <point x="217" y="499" type="curve" smooth="yes"/>
      <point x="217" y="542"/>
      <point x="252" y="574"/>
      <point x="319" y="574" type="curve"/>
      <point x="319" y="434" type="line"/>
      <point x="252" y="434"/>
      <point x="217" y="458"/>
    </contour>
    <contour>
      <point x="500" y="131" type="curve"/>
      <point x="500" y="281" type="line"/>
      <point x="591" y="281"/>
      <point x="630" y="257"/>
      <point x="630" y="217" type="curve" smooth="yes"/>
      <point x="630" y="160"/>
      <point x="601" y="133"/>
    </contour>
  </outline>
</glyph>
<glyph name="uni0587" format="2">
  <advance width="745"/>
  <unicode hex="0587"/>
  <note>
uni0587
</note>
  <outline>
    <contour>
      <point x="259" y="-10" type="curve" smooth="yes"/>
      <point x="321" y="-10"/>
      <point x="367" y="9"/>
      <point x="397" y="49" type="curve"/>
      <point x="399" y="49" type="line"/>
      <point x="420" y="0" type="line"/>
      <point x="741" y="0" type="line"/>
      <point x="741" y="140" type="line"/>
      <point x="583" y="140" type="line"/>
      <point x="583" y="508" type="line"/>
      <point x="395" y="508" type="line"/>
      <point x="395" y="292" type="line" smooth="yes"/>
      <point x="395" y="194"/>
      <point x="371" y="139"/>
      <point x="313" y="139" type="curve" smooth="yes"/>
      <point x="274" y="139"/>
      <point x="252" y="167"/>
      <point x="252" y="212" type="curve" smooth="yes"/>
      <point x="252" y="760" type="line"/>
      <point x="64" y="760" type="line"/>
      <point x="64" y="173" type="line" smooth="yes"/>
      <point x="64" y="56"/>
      <point x="135" y="-10"/>
    </contour>
  </outline>
</glyph>
<glyph name="uni0588" format="2">
  <advance width="420"/>
  <unicode hex="0588"/>
  <note>
uni0575
</note>
  <outline>
    <contour>
      <point x="116" y="183" type="line"/>
      <point x="304" y="183" type="line"/>
      <point x="304" y="508" type="line"/>
      <point x="116" y="508" type="line"/>
    </contour>
    <contour>
      <point x="116" y="183" type="line"/>
      <point x="116" y="120"/>
      <point x="119" y="77"/>
      <point x="135" y="39" type="curve" smooth="yes"/>
      <point x="155" y="-9"/>
      <point x="159" y="-37"/>
      <point x="159" y="-67" type="curve" smooth="yes"/>
      <point x="159" y="-108"/>
      <point x="123" y="-126"/>
      <point x="88" y="-126" type="curve" smooth="yes"/>
      <point x="66" y="-126" type="line"/>
      <point x="66" y="-266" type="line"/>
      <point x="125" y="-266" type="line" smooth="yes"/>
      <point x="259" y="-266"/>
      <point x="347" y="-189"/>
      <point x="347" y="-54" type="curve" smooth="yes"/>
      <point x="347" y="-30"/>
      <point x="340" y="-8"/>
      <point x="326" y="36" type="curve" smooth="yes"/>
      <point x="312" y="79"/>
      <point x="304" y="131"/>
      <point x="304" y="183" type="curve"/>
    </contour>
    <contour>
      <point x="12" y="192" type="line"/>
      <point x="12" y="52" type="line"/>
      <point x="408" y="52" type="line"/>
      <point x="408" y="192" type="line"/>
    </contour>
  </outline>
</glyph>
<glyph name="uni0589" format="2">
  <advance width="305"/>
  <unicode hex="0589"/>
  <note>
uni0589
</note>
  <outline>
    <contour>
      <point x="48" y="85" type="curve" smooth="yes"/>
      <point x="48" y="13"/>
      <point x="97" y="-15"/>
      <point x="154" y="-15" type="curve" smooth="yes"/>
      <point x="207" y="-15"/>
      <point x="257" y="13"/>
      <point x="257" y="85" type="curve" smooth="yes"/>
      <point x="257" y="160"/>
      <point x="207" y="185"/>
      <point x="154" y="185" type="curve" smooth="yes"/>
      <point x="97" y="185"/>
      <point x="48" y="160"/>
    </contour>
    <contour>
      <point x="48" y="419" type="curve" smooth="yes"/>
      <point x="48" y="346"/>
      <point x="97" y="319"/>
      <point x="154" y="319" type="curve" smooth="yes"/>
      <point x="207" y="319"/>
      <point x="257" y="346"/>
      <point x="257" y="419" type="curve" smooth="yes"/>
      <point x="257" y="494"/>
      <point x="207" y="518"/>
      <point x="154" y="518" type="curve" smooth="yes"/>
      <point x="97" y="518"/>
      <point x="48" y="494"/>
    </contour>
  </outline>
</glyph>
<glyph name="uni058A" format="2">
  <advance width="413"/>
  <unicode hex="058A"/>
  <note>
uni058A
</note>
  <outline>
    <contour>
      <point x="164" y="169" type="curve" smooth="yes"/>
      <point x="240" y="169"/>
      <point x="333" y="187"/>
      <point x="393" y="215" type="curve"/>
      <point x="393" y="336" type="line"/>
      <point x="320" y="321"/>
      <point x="262" y="317"/>
      <point x="214" y="317" type="curve" smooth="yes"/>
      <point x="183" y="317"/>
      <point x="163" y="325"/>
      <point x="163" y="384" type="curve"/>
      <point x="18" y="384" type="line"/>
      <point x="18" y="237"/>
      <point x="64" y="169"/>
    </contour>
  </outline>
</glyph>
<glyph name="uni058D" format="2">
  <advance width="810"/>
  <unicode hex="058D"/>
  <outline>
    <contour>
      <point x="405" y="-10" type="curve" smooth="yes"/>
      <point x="458" y="-10"/>
      <point x="505" y="8"/>
      <point x="543" y="40" type="curve"/>
      <point x="651" y="51"/>
      <point x="725" y="128"/>
      <point x="730" y="227" type="curve"/>
      <point x="763" y="265"/>
      <point x="780" y="310"/>
      <point x="780" y="357" type="curve" smooth="yes"/>
      <point x="780" y="407"/>
      <point x="760" y="453"/>
      <point x="729" y="488" type="curve"/>
      <point x="725" y="588"/>
      <point x="647" y="664"/>
      <point x="543" y="673" type="curve"/>
      <point x="507" y="706"/>
      <point x="456" y="724"/>
      <point x="405" y="724" type="curve" smooth="yes"/>
      <point x="354" y="724"/>
      <point x="306" y="706"/>
      <point x="269" y="674" type="curve"/>
      <point x="161" y="663"/>
      <point x="85" y="587"/>
      <point x="80" y="487" type="curve"/>
      <point x="47" y="448"/>
      <point x="30" y="403"/>
      <point x="30" y="357" type="curve" smooth="yes"/>
      <point x="30" y="307"/>
      <point x="50" y="261"/>
      <point x="82" y="226" type="curve"/>
      <point x="86" y="128"/>
      <point x="161" y="50"/>
      <point x="266" y="41" type="curve"/>
      <point x="304" y="8"/>
      <point x="355" y="-10"/>
    </contour>
    <contour>
      <point x="597" y="114" type="curve"/>
      <point x="606" y="137"/>
      <point x="611" y="162"/>
      <point x="611" y="187" type="curve" smooth="yes"/>
      <point x="611" y="271"/>
      <point x="556" y="341"/>
      <point x="480" y="372" type="curve"/>
      <point x="494" y="377"/>
      <point x="509" y="379"/>
      <point x="523" y="379" type="curve" smooth="yes"/>
      <point x="596" y="379"/>
      <point x="659" y="315"/>
      <point x="659" y="235" type="curve" smooth="yes"/>
      <point x="659" y="183"/>
      <point x="631" y="135"/>
    </contour>
    <contour>
      <point x="405" y="44" type="curve" smooth="yes"/>
      <point x="390" y="44"/>
      <point x="376" y="46"/>
      <point x="360" y="52" type="curve"/>
      <point x="443" y="82"/>
      <point x="490" y="157"/>
      <point x="490" y="236" type="curve" smooth="yes"/>
      <point x="490" y="262"/>
      <point x="486" y="287"/>
      <point x="476" y="311" type="curve"/>
      <point x="514" y="284"/>
      <point x="539" y="238"/>
      <point x="539" y="187" type="curve" smooth="yes"/>
      <point x="539" y="108"/>
      <point x="480" y="44"/>
    </contour>
    <contour>
      <point x="711" y="326" type="curve"/>
      <point x="673" y="398"/>
      <point x="601" y="435"/>
      <point x="527" y="435" type="curve" smooth="yes"/>
      <point x="503" y="435"/>
      <point x="479" y="432"/>
      <point x="455" y="425" type="curve"/>
      <point x="479" y="469"/>
      <point x="523" y="497"/>
      <point x="575" y="497" type="curve" smooth="yes"/>
      <point x="650" y="497"/>
      <point x="710" y="436"/>
      <point x="710" y="357" type="curve" smooth="yes"/>
      <point x="710" y="348"/>
      <point x="710" y="337"/>
    </contour>
    <contour>
      <point x="284" y="94" type="curve" smooth="yes"/>
      <point x="238" y="94"/>
      <point x="189" y="124"/>
      <point x="166" y="168" type="curve"/>
      <point x="188" y="162"/>
      <point x="212" y="158"/>
      <point x="236" y="158" type="curve" smooth="yes"/>
      <point x="315" y="158"/>
      <point x="385" y="202"/>
      <point x="421" y="266" type="curve"/>
      <point x="420" y="257"/>
      <point x="420" y="248"/>
      <point x="420" y="239" type="curve" smooth="yes"/>
      <point x="420" y="158"/>
      <point x="355" y="94"/>
    </contour>
    <contour>
      <point x="390" y="448" type="curve"/>
      <point x="390" y="457"/>
      <point x="390" y="466"/>
      <point x="390" y="475" type="curve" smooth="yes"/>
      <point x="390" y="556"/>
      <point x="456" y="620"/>
      <point x="527" y="620" type="curve" smooth="yes"/>
      <point x="573" y="620"/>
      <point x="623" y="588"/>
      <point x="646" y="546" type="curve"/>
      <point x="623" y="552"/>
      <point x="599" y="556"/>
      <point x="575" y="556" type="curve" smooth="yes"/>
      <point x="496" y="556"/>
      <point x="426" y="512"/>
    </contour>
    <contour>
      <point x="235" y="217" type="curve" smooth="yes"/>
      <point x="160" y="217"/>
      <point x="100" y="278"/>
      <point x="100" y="357" type="curve" smooth="yes"/>
      <point x="100" y="366"/>
      <point x="99" y="377"/>
      <point x="99" y="388" type="curve"/>
      <point x="138" y="316"/>
      <point x="209" y="279"/>
      <point x="283" y="279" type="curve" smooth="yes"/>
      <point x="307" y="279"/>
      <point x="331" y="282"/>
      <point x="355" y="289" type="curve"/>
      <point x="331" y="245"/>
      <point x="287" y="217"/>
    </contour>
    <contour>
      <point x="335" y="403" type="curve"/>
      <point x="296" y="430"/>
      <point x="272" y="476"/>
      <point x="272" y="527" type="curve" smooth="yes"/>
      <point x="272" y="606"/>
      <point x="330" y="670"/>
      <point x="405" y="670" type="curve" smooth="yes"/>
      <point x="421" y="670"/>
      <point x="436" y="668"/>
      <point x="451" y="662" type="curve"/>
      <point x="368" y="632"/>
      <point x="320" y="557"/>
      <point x="320" y="478" type="curve" smooth="yes"/>
      <point x="320" y="452"/>
      <point x="325" y="427"/>
    </contour>
    <contour>
      <point x="287" y="335" type="curve" smooth="yes"/>
      <point x="215" y="335"/>
      <point x="151" y="399"/>
      <point x="151" y="479" type="curve" smooth="yes"/>
      <point x="151" y="526"/>
      <point x="172" y="572"/>
      <point x="214" y="602" type="curve"/>
      <point x="205" y="579"/>
      <point x="199" y="554"/>
      <point x="199" y="527" type="curve" smooth="yes"/>
      <point x="199" y="443"/>
      <point x="255" y="373"/>
      <point x="330" y="342" type="curve"/>
      <point x="316" y="337"/>
      <point x="301" y="335"/>
    </contour>
  </outline>
</glyph>
<glyph name="uni058E" format="2">
  <advance width="811"/>
  <unicode hex="058E"/>
  <outline>
    <contour>
      <point x="405" y="-10" type="curve" smooth="yes"/>
      <point x="455" y="-10"/>
      <point x="507" y="8"/>
      <point x="544" y="41" type="curve"/>
      <point x="650" y="50"/>
      <point x="724" y="128"/>
      <point x="729" y="226" type="curve"/>
      <point x="760" y="261"/>
      <point x="780" y="307"/>
      <point x="780" y="357" type="curve" smooth="yes"/>
      <point x="780" y="403"/>
      <point x="763" y="448"/>
      <point x="730" y="487" type="curve"/>
      <point x="725" y="587"/>
      <point x="650" y="663"/>
      <point x="542" y="674" type="curve"/>
      <point x="505" y="706"/>
      <point x="457" y="724"/>
      <point x="405" y="724" type="curve" smooth="yes"/>
      <point x="354" y="724"/>
      <point x="304" y="706"/>
      <point x="267" y="673" type="curve"/>
      <point x="164" y="664"/>
      <point x="86" y="588"/>
      <point x="82" y="488" type="curve"/>
      <point x="50" y="453"/>
      <point x="30" y="407"/>
      <point x="30" y="357" type="curve" smooth="yes"/>
      <point x="30" y="310"/>
      <point x="47" y="265"/>
      <point x="80" y="227" type="curve"/>
      <point x="85" y="128"/>
      <point x="159" y="51"/>
      <point x="267" y="40" type="curve"/>
      <point x="305" y="8"/>
      <point x="353" y="-10"/>
    </contour>
    <contour>
      <point x="214" y="114" type="curve"/>
      <point x="180" y="135"/>
      <point x="151" y="183"/>
      <point x="151" y="235" type="curve" smooth="yes"/>
      <point x="151" y="315"/>
      <point x="215" y="379"/>
      <point x="287" y="379" type="curve" smooth="yes"/>
      <point x="301" y="379"/>
      <point x="316" y="377"/>
      <point x="330" y="372" type="curve"/>
      <point x="255" y="341"/>
      <point x="199" y="271"/>
      <point x="199" y="187" type="curve" smooth="yes"/>
      <point x="199" y="162"/>
      <point x="205" y="137"/>
    </contour>
    <contour>
      <point x="405" y="44" type="curve" smooth="yes"/>
      <point x="330" y="44"/>
      <point x="272" y="108"/>
      <point x="272" y="187" type="curve" smooth="yes"/>
      <point x="272" y="238"/>
      <point x="296" y="284"/>
      <point x="335" y="311" type="curve"/>
      <point x="325" y="287"/>
      <point x="320" y="262"/>
      <point x="320" y="236" type="curve" smooth="yes"/>
      <point x="320" y="157"/>
      <point x="368" y="82"/>
      <point x="451" y="52" type="curve"/>
      <point x="435" y="46"/>
      <point x="421" y="44"/>
    </contour>
    <contour>
      <point x="100" y="326" type="curve"/>
      <point x="100" y="337"/>
      <point x="101" y="348"/>
      <point x="101" y="357" type="curve" smooth="yes"/>
      <point x="101" y="436"/>
      <point x="161" y="497"/>
      <point x="236" y="497" type="curve" smooth="yes"/>
      <point x="288" y="497"/>
      <point x="331" y="469"/>
      <point x="356" y="425" type="curve"/>
      <point x="332" y="432"/>
      <point x="308" y="435"/>
      <point x="283" y="435" type="curve" smooth="yes"/>
      <point x="210" y="435"/>
      <point x="138" y="398"/>
    </contour>
    <contour>
      <point x="527" y="94" type="curve" smooth="yes"/>
      <point x="456" y="94"/>
      <point x="390" y="158"/>
      <point x="390" y="239" type="curve" smooth="yes"/>
      <point x="390" y="248"/>
      <point x="390" y="257"/>
      <point x="390" y="266" type="curve"/>
      <point x="426" y="202"/>
      <point x="496" y="158"/>
      <point x="575" y="158" type="curve" smooth="yes"/>
      <point x="599" y="158"/>
      <point x="623" y="162"/>
      <point x="645" y="168" type="curve"/>
      <point x="622" y="124"/>
      <point x="572" y="94"/>
    </contour>
    <contour>
      <point x="420" y="448" type="curve"/>
      <point x="384" y="512"/>
      <point x="314" y="556"/>
      <point x="235" y="556" type="curve" smooth="yes"/>
      <point x="211" y="556"/>
      <point x="187" y="552"/>
      <point x="164" y="546" type="curve"/>
      <point x="187" y="588"/>
      <point x="237" y="620"/>
      <point x="283" y="620" type="curve" smooth="yes"/>
      <point x="354" y="620"/>
      <point x="420" y="556"/>
      <point x="420" y="475" type="curve" smooth="yes"/>
      <point x="420" y="466"/>
      <point x="420" y="457"/>
    </contour>
    <contour>
      <point x="575" y="217" type="curve" smooth="yes"/>
      <point x="523" y="217"/>
      <point x="479" y="245"/>
      <point x="455" y="289" type="curve"/>
      <point x="479" y="282"/>
      <point x="503" y="279"/>
      <point x="527" y="279" type="curve" smooth="yes"/>
      <point x="601" y="279"/>
      <point x="672" y="316"/>
      <point x="711" y="388" type="curve"/>
      <point x="711" y="377"/>
      <point x="710" y="366"/>
      <point x="710" y="357" type="curve" smooth="yes"/>
      <point x="710" y="278"/>
      <point x="650" y="217"/>
    </contour>
    <contour>
      <point x="476" y="403" type="curve"/>
      <point x="486" y="427"/>
      <point x="490" y="452"/>
      <point x="490" y="478" type="curve" smooth="yes"/>
      <point x="490" y="557"/>
      <point x="443" y="632"/>
      <point x="360" y="662" type="curve"/>
      <point x="374" y="668"/>
      <point x="389" y="670"/>
      <point x="405" y="670" type="curve" smooth="yes"/>
      <point x="480" y="670"/>
      <point x="539" y="606"/>
      <point x="539" y="527" type="curve" smooth="yes"/>
      <point x="539" y="476"/>
      <point x="514" y="430"/>
    </contour>
    <contour>
      <point x="523" y="335" type="curve" smooth="yes"/>
      <point x="509" y="335"/>
      <point x="494" y="337"/>
      <point x="480" y="342" type="curve"/>
      <point x="556" y="373"/>
      <point x="611" y="443"/>
      <point x="611" y="527" type="curve" smooth="yes"/>
      <point x="611" y="554"/>
      <point x="606" y="579"/>
      <point x="596" y="602" type="curve"/>
      <point x="638" y="572"/>
      <point x="659" y="526"/>
      <point x="659" y="479" type="curve" smooth="yes"/>
      <point x="659" y="399"/>
      <point x="596" y="335"/>
    </contour>
  </outline>
</glyph>
<glyph name="uni058F" format="2">
  <advance width="776"/>
  <unicode hex="058F"/>
  <note>
uni058F
</note>
  <outline>
    <contour>
      <point x="632" y="0" type="line"/>
      <point x="632" y="460" type="line" smooth="yes"/>
      <point x="632" y="613"/>
      <point x="530" y="724"/>
      <point x="338" y="724" type="curve" smooth="yes"/>
      <point x="135" y="724"/>
      <point x="37" y="602"/>
      <point x="37" y="422" type="curve"/>
      <point x="228" y="422" type="line"/>
      <point x="228" y="525"/>
      <point x="257" y="566"/>
      <point x="332" y="566" type="curve" smooth="yes"/>
      <point x="404" y="566"/>
      <point x="441" y="535"/>
      <point x="441" y="470" type="curve" smooth="yes"/>
      <point x="441" y="0" type="line"/>
    </contour>
    <contour>
      <point x="301" y="458" type="line"/>
      <point x="301" y="345" type="line"/>
      <point x="772" y="345" type="line"/>
      <point x="772" y="458" type="line"/>
    </contour>
    <contour>
      <point x="301" y="299" type="line"/>
      <point x="301" y="185" type="line"/>
      <point x="772" y="185" type="line"/>
      <point x="772" y="299" type="line"/>
    </contour>
  </outline>
</glyph>
<glyph name="uniFB13" format="2">
  <advance width="1320"/>
  <unicode hex="FB13"/>
  <note>
uniFB13
</note>
  <outline>
    <contour>
      <point x="583" y="317" type="line" smooth="yes"/>
      <point x="583" y="400"/>
      <point x="576" y="446"/>
      <point x="525" y="505" type="curve" smooth="yes"/>
      <point x="511" y="522"/>
      <point x="480" y="560"/>
      <point x="480" y="587" type="curve" smooth="yes"/>
      <point x="480" y="604"/>
      <point x="493" y="620"/>
      <point x="511" y="620" type="curve" smooth="yes"/>
      <point x="757" y="620" type="line"/>
      <point x="757" y="760" type="line"/>
      <point x="523" y="760" type="line" smooth="yes"/>
      <point x="357" y="760"/>
      <point x="290" y="675"/>
      <point x="290" y="573" type="curve" smooth="yes"/>
      <point x="290" y="551"/>
      <point x="308" y="498"/>
      <point x="341" y="455" type="curve" smooth="yes"/>
      <point x="385" y="398"/>
      <point x="395" y="362"/>
      <point x="395" y="319" type="curve" smooth="yes"/>
      <point x="395" y="292" type="line" smooth="yes"/>
      <point x="395" y="195"/>
      <point x="374" y="139"/>
      <point x="315" y="139" type="curve" smooth="yes"/>
      <point x="274" y="139"/>
      <point x="252" y="168"/>
      <point x="252" y="213" type="curve" smooth="yes"/>
      <point x="252" y="508" type="line"/>
      <point x="64" y="508" type="line"/>
      <point x="64" y="173" type="line" smooth="yes"/>
      <point x="64" y="58"/>
      <point x="134" y="-10"/>
      <point x="261" y="-10" type="curve" smooth="yes"/>
      <point x="325" y="-10"/>
      <point x="374" y="9"/>
      <point x="403" y="49" type="curve"/>
      <point x="413" y="49" type="line"/>
      <point x="436" y="0" type="line"/>
      <point x="583" y="0" type="line"/>
    </contour>
    <contour>
      <point x="787" y="482" type="line"/>
      <point x="771" y="440"/>
      <point x="714" y="322"/>
      <point x="714" y="218" type="curve" smooth="yes"/>
      <point x="714" y="76"/>
      <point x="797" y="-10"/>
      <point x="930" y="-10" type="curve" smooth="yes"/>
      <point x="994" y="-10"/>
      <point x="1043" y="9"/>
      <point x="1072" y="49" type="curve"/>
      <point x="1082" y="49" type="line"/>
      <point x="1105" y="0" type="line"/>
      <point x="1253" y="0" type="line"/>
      <point x="1253" y="508" type="line"/>
      <point x="1064" y="508" type="line"/>
      <point x="1064" y="292" type="line" smooth="yes"/>
      <point x="1064" y="194"/>
      <point x="1038" y="139"/>
      <point x="979" y="139" type="curve" smooth="yes"/>
      <point x="933" y="139"/>
      <point x="906" y="169"/>
      <point x="906" y="255" type="curve" smooth="yes"/>
      <point x="906" y="352"/>
      <point x="925" y="452"/>
      <point x="960" y="546" type="curve"/>
      <point x="960" y="563" type="line"/>
      <point x="822" y="563" type="line"/>
    </contour>
    <contour>
      <point x="960" y="563" type="line"/>
      <point x="950" y="567" type="line" smooth="yes"/>
      <point x="903" y="586"/>
      <point x="897" y="596"/>
      <point x="897" y="627" type="curve" smooth="yes"/>
      <point x="897" y="644"/>
      <point x="902" y="662"/>
      <point x="906" y="675" type="curve" smooth="yes"/>
      <point x="917" y="708" type="line"/>
      <point x="757" y="760" type="line"/>
      <point x="731" y="688" type="line" smooth="yes"/>
      <point x="721" y="661"/>
      <point x="712" y="631"/>
      <point x="712" y="591" type="curve" smooth="yes"/>
      <point x="712" y="541"/>
      <point x="736" y="502"/>
      <point x="785" y="480" type="curve" smooth="yes"/>
      <point x="794" y="476" type="line"/>
    </contour>
  </outline>
</glyph>
<glyph name="uniFB14" format="2">
  <advance width="1315"/>
  <unicode hex="FB14"/>
  <note>
uniFB14
</note>
  <outline>
    <contour>
      <point x="583" y="317" type="line" smooth="yes"/>
      <point x="583" y="400"/>
      <point x="576" y="446"/>
      <point x="525" y="505" type="curve" smooth="yes"/>
      <point x="511" y="522"/>
      <point x="480" y="560"/>
      <point x="480" y="587" type="curve" smooth="yes"/>
      <point x="480" y="606"/>
      <point x="493" y="620"/>
      <point x="511" y="620" type="curve" smooth="yes"/>
      <point x="793" y="620" type="line"/>
      <point x="793" y="760" type="line"/>
      <point x="523" y="760" type="line" smooth="yes"/>
      <point x="357" y="760"/>
      <point x="290" y="675"/>
      <point x="290" y="573" type="curve" smooth="yes"/>
      <point x="290" y="551"/>
      <point x="308" y="498"/>
      <point x="341" y="455" type="curve" smooth="yes"/>
      <point x="385" y="398"/>
      <point x="395" y="362"/>
      <point x="395" y="319" type="curve" smooth="yes"/>
      <point x="395" y="292" type="line" smooth="yes"/>
      <point x="395" y="195"/>
      <point x="374" y="139"/>
      <point x="315" y="139" type="curve" smooth="yes"/>
      <point x="274" y="139"/>
      <point x="252" y="168"/>
      <point x="252" y="213" type="curve" smooth="yes"/>
      <point x="252" y="508" type="line"/>
      <point x="64" y="508" type="line"/>
      <point x="64" y="173" type="line" smooth="yes"/>
      <point x="64" y="58"/>
      <point x="134" y="-10"/>
      <point x="261" y="-10" type="curve" smooth="yes"/>
      <point x="325" y="-10"/>
      <point x="374" y="9"/>
      <point x="403" y="49" type="curve"/>
      <point x="413" y="49" type="line"/>
      <point x="436" y="0" type="line"/>
      <point x="583" y="0" type="line"/>
    </contour>
    <contour>
      <point x="1245" y="292" type="line"/>
      <point x="1057" y="292" type="line"/>
      <point x="1057" y="282" type="line" smooth="yes"/>
      <point x="1057" y="184"/>
      <point x="1036" y="139"/>
      <point x="977" y="139" type="curve" smooth="yes"/>
      <point x="936" y="139"/>
      <point x="914" y="168"/>
      <point x="914" y="213" type="curve" smooth="yes"/>
      <point x="914" y="760" type="line"/>
      <point x="726" y="760" type="line"/>
      <point x="726" y="173" type="line" smooth="yes"/>
      <point x="726" y="58"/>
      <point x="796" y="-10"/>
      <point x="923" y="-10" type="curve" smooth="yes"/>
      <point x="987" y="-10"/>
      <point x="1036" y="9"/>
      <point x="1065" y="49" type="curve"/>
      <point x="1075" y="49" type="line"/>
      <point x="1098" y="0" type="line"/>
      <point x="1245" y="0" type="line"/>
    </contour>
    <contour>
      <point x="816" y="508" type="line"/>
      <point x="816" y="368" type="line"/>
      <point x="1259" y="368" type="line"/>
      <point x="1259" y="508" type="line"/>
    </contour>
  </outline>
</glyph>
<glyph name="uniFB15" format="2">
  <advance width="1313"/>
  <unicode hex="FB15"/>
  <note>
uniFB15
</note>
  <outline>
    <contour>
      <point x="583" y="317" type="line" smooth="yes"/>
      <point x="583" y="400"/>
      <point x="576" y="446"/>
      <point x="525" y="505" type="curve" smooth="yes"/>
      <point x="511" y="522"/>
      <point x="480" y="560"/>
      <point x="480" y="587" type="curve" smooth="yes"/>
      <point x="480" y="606"/>
      <point x="493" y="620"/>
      <point x="511" y="620" type="curve" smooth="yes"/>
      <point x="806" y="620" type="line"/>
      <point x="806" y="760" type="line"/>
      <point x="523" y="760" type="line" smooth="yes"/>
      <point x="357" y="760"/>
      <point x="290" y="675"/>
      <point x="290" y="573" type="curve" smooth="yes"/>
      <point x="290" y="551"/>
      <point x="308" y="498"/>
      <point x="341" y="455" type="curve" smooth="yes"/>
      <point x="385" y="398"/>
      <point x="395" y="362"/>
      <point x="395" y="319" type="curve" smooth="yes"/>
      <point x="395" y="292" type="line" smooth="yes"/>
      <point x="395" y="195"/>
      <point x="374" y="139"/>
      <point x="315" y="139" type="curve" smooth="yes"/>
      <point x="274" y="139"/>
      <point x="252" y="168"/>
      <point x="252" y="213" type="curve" smooth="yes"/>
      <point x="252" y="508" type="line"/>
      <point x="64" y="508" type="line"/>
      <point x="64" y="173" type="line" smooth="yes"/>
      <point x="64" y="58"/>
      <point x="134" y="-10"/>
      <point x="261" y="-10" type="curve" smooth="yes"/>
      <point x="325" y="-10"/>
      <point x="374" y="9"/>
      <point x="403" y="49" type="curve"/>
      <point x="413" y="49" type="line"/>
      <point x="436" y="0" type="line"/>
      <point x="583" y="0" type="line"/>
    </contour>
    <contour>
      <point x="918" y="760" type="line"/>
      <point x="730" y="760" type="line"/>
      <point x="730" y="-243" type="line"/>
      <point x="918" y="-243" type="line"/>
      <point x="918" y="216" type="line" smooth="yes"/>
      <point x="918" y="314"/>
      <point x="941" y="369"/>
      <point x="999" y="369" type="curve" smooth="yes"/>
      <point x="1038" y="369"/>
      <point x="1061" y="341"/>
      <point x="1061" y="295" type="curve" smooth="yes"/>
      <point x="1061" y="0" type="line"/>
      <point x="1249" y="0" type="line"/>
      <point x="1249" y="336" type="line" smooth="yes"/>
      <point x="1249" y="451"/>
      <point x="1178" y="518"/>
      <point x="1053" y="518" type="curve" smooth="yes"/>
      <point x="990" y="518"/>
      <point x="950" y="499"/>
      <point x="920" y="459" type="curve"/>
      <point x="910" y="459" type="line"/>
      <point x="916" y="491"/>
      <point x="918" y="528"/>
      <point x="918" y="560" type="curve" smooth="yes"/>
    </contour>
  </outline>
</glyph>
<glyph name="uniFB16" format="2">
  <advance width="1325"/>
  <unicode hex="FB16"/>
  <note>
uniFB16
</note>
  <outline>
    <contour>
      <point x="583" y="-103" type="line"/>
      <point x="583" y="760" type="line"/>
      <point x="395" y="760" type="line"/>
      <point x="395" y="292" type="line" smooth="yes"/>
      <point x="395" y="194"/>
      <point x="374" y="139"/>
      <point x="315" y="139" type="curve" smooth="yes"/>
      <point x="274" y="139"/>
      <point x="252" y="168"/>
      <point x="252" y="213" type="curve" smooth="yes"/>
      <point x="252" y="508" type="line"/>
      <point x="64" y="508" type="line"/>
      <point x="64" y="173" type="line" smooth="yes"/>
      <point x="64" y="58"/>
      <point x="134" y="-10"/>
      <point x="261" y="-10" type="curve" smooth="yes"/>
      <point x="325" y="-10"/>
      <point x="367" y="9"/>
      <point x="397" y="49" type="curve"/>
      <point x="406" y="49" type="line"/>
      <point x="399" y="33"/>
      <point x="395" y="16"/>
      <point x="395" y="1" type="curve" smooth="yes"/>
      <point x="395" y="-243" type="line"/>
      <point x="764" y="-243" type="line"/>
      <point x="764" y="-103" type="line"/>
    </contour>
    <contour>
      <point x="392" y="760" type="line"/>
      <point x="392" y="620" type="line"/>
      <point x="762" y="620" type="line"/>
      <point x="762" y="760" type="line"/>
    </contour>
    <contour>
      <point x="793" y="482" type="line"/>
      <point x="777" y="440"/>
      <point x="719" y="322"/>
      <point x="719" y="218" type="curve" smooth="yes"/>
      <point x="719" y="76"/>
      <point x="802" y="-10"/>
      <point x="935" y="-10" type="curve" smooth="yes"/>
      <point x="999" y="-10"/>
      <point x="1048" y="9"/>
      <point x="1077" y="49" type="curve"/>
      <point x="1087" y="49" type="line"/>
      <point x="1110" y="0" type="line"/>
      <point x="1258" y="0" type="line"/>
      <point x="1258" y="508" type="line"/>
      <point x="1069" y="508" type="line"/>
      <point x="1069" y="292" type="line" smooth="yes"/>
      <point x="1069" y="194"/>
      <point x="1043" y="139"/>
      <point x="984" y="139" type="curve" smooth="yes"/>
      <point x="938" y="139"/>
      <point x="911" y="169"/>
      <point x="911" y="255" type="curve" smooth="yes"/>
      <point x="911" y="354"/>
      <point x="947" y="480"/>
      <point x="965" y="546" type="curve"/>
      <point x="965" y="563" type="line"/>
      <point x="849" y="601" type="line"/>
    </contour>
    <contour>
      <point x="965" y="563" type="line"/>
      <point x="955" y="567" type="line" smooth="yes"/>
      <point x="908" y="586"/>
      <point x="902" y="596"/>
      <point x="902" y="627" type="curve" smooth="yes"/>
      <point x="902" y="644"/>
      <point x="907" y="662"/>
      <point x="911" y="675" type="curve" smooth="yes"/>
      <point x="922" y="708" type="line"/>
      <point x="762" y="760" type="line"/>
      <point x="736" y="688" type="line" smooth="yes"/>
      <point x="726" y="661"/>
      <point x="717" y="631"/>
      <point x="717" y="591" type="curve" smooth="yes"/>
      <point x="717" y="541"/>
      <point x="741" y="502"/>
      <point x="790" y="480" type="curve" smooth="yes"/>
      <point x="799" y="476" type="line"/>
    </contour>
  </outline>
</glyph>
<glyph name="uniFB17" format="2">
  <advance width="1668"/>
  <unicode hex="FB17"/>
  <note>
uniFB17
</note>
  <outline>
    <contour>
      <point x="583" y="317" type="line" smooth="yes"/>
      <point x="583" y="400"/>
      <point x="576" y="446"/>
      <point x="525" y="505" type="curve" smooth="yes"/>
      <point x="511" y="522"/>
      <point x="480" y="560"/>
      <point x="480" y="587" type="curve" smooth="yes"/>
      <point x="480" y="606"/>
      <point x="493" y="620"/>
      <point x="511" y="620" type="curve" smooth="yes"/>
      <point x="751" y="620" type="line"/>
      <point x="751" y="760" type="line"/>
      <point x="523" y="760" type="line" smooth="yes"/>
      <point x="357" y="760"/>
      <point x="290" y="675"/>
      <point x="290" y="573" type="curve" smooth="yes"/>
      <point x="290" y="551"/>
      <point x="308" y="498"/>
      <point x="341" y="455" type="curve" smooth="yes"/>
      <point x="385" y="398"/>
      <point x="395" y="362"/>
      <point x="395" y="319" type="curve" smooth="yes"/>
      <point x="395" y="292" type="line" smooth="yes"/>
      <point x="395" y="195"/>
      <point x="374" y="139"/>
      <point x="315" y="139" type="curve" smooth="yes"/>
      <point x="274" y="139"/>
      <point x="252" y="168"/>
      <point x="252" y="213" type="curve" smooth="yes"/>
      <point x="252" y="508" type="line"/>
      <point x="64" y="508" type="line"/>
      <point x="64" y="173" type="line" smooth="yes"/>
      <point x="64" y="58"/>
      <point x="134" y="-10"/>
      <point x="261" y="-10" type="curve" smooth="yes"/>
      <point x="325" y="-10"/>
      <point x="374" y="9"/>
      <point x="403" y="49" type="curve"/>
      <point x="413" y="49" type="line"/>
      <point x="436" y="0" type="line"/>
      <point x="583" y="0" type="line"/>
    </contour>
    <contour>
      <point x="1413" y="508" type="line"/>
      <point x="1413" y="292" type="line" smooth="yes"/>
      <point x="1413" y="194"/>
      <point x="1388" y="139"/>
      <point x="1327" y="139" type="curve" smooth="yes"/>
      <point x="1284" y="139"/>
      <point x="1262" y="168"/>
      <point x="1262" y="213" type="curve" smooth="yes"/>
      <point x="1262" y="336" type="line" smooth="yes"/>
      <point x="1262" y="451"/>
      <point x="1189" y="518"/>
      <point x="1059" y="518" type="curve" smooth="yes"/>
      <point x="994" y="518"/>
      <point x="951" y="499"/>
      <point x="920" y="459" type="curve"/>
      <point x="910" y="459" type="line"/>
      <point x="916" y="491"/>
      <point x="918" y="528"/>
      <point x="918" y="560" type="curve" smooth="yes"/>
      <point x="918" y="760" type="line"/>
      <point x="730" y="760" type="line"/>
      <point x="730" y="-243" type="line"/>
      <point x="918" y="-243" type="line"/>
      <point x="918" y="216" type="line" smooth="yes"/>
      <point x="918" y="314"/>
      <point x="945" y="369"/>
      <point x="1005" y="369" type="curve" smooth="yes"/>
      <point x="1050" y="369"/>
      <point x="1074" y="341"/>
      <point x="1074" y="295" type="curve" smooth="yes"/>
      <point x="1074" y="173" type="line" smooth="yes"/>
      <point x="1074" y="58"/>
      <point x="1144" y="-10"/>
      <point x="1273" y="-10" type="curve" smooth="yes"/>
      <point x="1338" y="-10"/>
      <point x="1391" y="9"/>
      <point x="1421" y="49" type="curve"/>
      <point x="1431" y="49" type="line"/>
      <point x="1453" y="0" type="line"/>
      <point x="1601" y="0" type="line"/>
      <point x="1601" y="508" type="line"/>
    </contour>
  </outline>
</glyph>
<glyph name=".notdef" format="2">
  <advance width="564"/>
  <note>
.notdef
</note>
  <outline>
    <contour>
      <point x="76" y="0" type="line"/>
      <point x="487" y="0" type="line"/>
      <point x="487" y="714" type="line"/>
      <point x="76" y="714" type="line"/>
    </contour>
    <contour>
      <point x="127" y="51" type="line"/>
      <point x="127" y="663" type="line"/>
      <point x="436" y="663" type="line"/>
      <point x="436" y="51" type="line"/>
    </contour>
  </outline>
</glyph>
